<?xml version="1.0" encoding="utf-8"?>
<!-- Generator: Adobe Illustrator 19.1.1, SVG Export Plug-In . SVG Version: 6.00 Build 0)  -->
<svg version="1.1" xmlns="http://www.w3.org/2000/svg" xmlns:xlink="http://www.w3.org/1999/xlink" x="0px" y="0px"
	 viewBox="0 0 491 566.9" style="enable-background:new 0 0 491 566.9;" xml:space="preserve">
<style type="text/css">
	.st0{fill:#FFFFFF;}
	.st1{fill:#E22735;}
	.st2{fill:#1D437D;}
	.st3{fill:#CDCCCC;}
</style>
<g id="Prisme">
</g>
<g id="Calque_6">
</g>
<g id="Background">
	<polygon class="st0" points="245.5,547.6 16.8,415.5 16.8,151.4 245.5,19.4 474.2,151.4 474.2,415.5 	"/>
</g>
<g id="Calque_5">
	<g>
		<g>
			<path class="st1" d="M359.3,427.4c-0.2-0.8,0.4-1.7,1.2-1.8l0,0c0.8-0.2,1.7,0.4,1.8,1.2l0,0c0.2,0.8-0.4,1.7-1.2,1.8l0,0
				c-0.1,0-0.2,0-0.3,0l0,0C360.1,428.7,359.5,428.2,359.3,427.4z M361.3,424.2c-0.8-0.1-1.5-0.8-1.4-1.6l0,0
				c-0.8,0.1-1.6-0.4-1.8-1.2l0,0c-0.2-0.8,0.4-1.7,1.2-1.8l0,0c0.8-0.2,1.7,0.4,1.8,1.2l0,0c0,0.1,0,0.2,0,0.4l0,0
				c0.1,0,0.2,0,0.3,0l0,0c0.8,0.1,1.5,0.8,1.4,1.7l0,0c-0.1,0.8-0.7,1.4-1.5,1.4l0,0C361.4,424.2,361.4,424.2,361.3,424.2z
				 M361.8,418c-0.9-0.1-1.5-0.8-1.4-1.7l0,0c0.1-0.8,0.8-1.5,1.7-1.4l0,0c0.8,0.1,1.5,0.8,1.4,1.7l0,0c-0.1,0.8-0.7,1.4-1.5,1.4
				l0,0C361.9,418,361.9,418,361.8,418z M357,415.3c-0.2-0.8,0.4-1.7,1.2-1.8l0,0c0.8-0.2,1.7,0.4,1.8,1.2l0,0
				c0.2,0.8-0.4,1.7-1.2,1.8l0,0c-0.1,0-0.2,0-0.3,0l0,0C357.8,416.5,357.1,416,357,415.3z M362.3,411.8c-0.9-0.1-1.5-0.8-1.4-1.7
				l0,0c0.1-0.9,0.8-1.5,1.7-1.4l0,0c0.8,0.1,1.5,0.8,1.4,1.7l0,0c-0.1,0.8-0.8,1.4-1.6,1.4l0,0
				C362.4,411.8,362.3,411.8,362.3,411.8z M355.8,409.2c-0.2-0.8,0.4-1.7,1.2-1.8l0,0c0.8-0.2,1.7,0.4,1.8,1.2l0,0
				c0.2,0.8-0.4,1.7-1.2,1.8l0,0c-0.1,0-0.2,0-0.3,0l0,0C356.6,410.4,355.9,409.9,355.8,409.2z M362.8,405.6
				c-0.8-0.1-1.5-0.8-1.4-1.7l0,0c0.1-0.9,0.8-1.5,1.7-1.4l0,0c0.9,0.1,1.5,0.8,1.4,1.7l0,0c-0.1,0.8-0.7,1.4-1.6,1.4l0,0
				C362.9,405.6,362.8,405.6,362.8,405.6z M354.6,403.1c-0.2-0.8,0.4-1.7,1.2-1.8l0,0c0.8-0.2,1.7,0.4,1.8,1.2l0,0
				c0.2,0.8-0.4,1.7-1.2,1.8l0,0c-0.1,0-0.2,0-0.3,0l0,0C355.4,404.3,354.7,403.8,354.6,403.1z M424.6,399.6
				c-0.1-0.9,0.4-1.6,1.3-1.8l0,0c0.2,0,0.5,0,0.7,0.1l0,0c0.4-0.7,1.2-0.9,2-0.6l0,0c0.8,0.3,1.1,1.3,0.8,2.1l0,0
				c-0.3,0.7-1.2,1.1-1.9,0.8l0,0c-0.2,0.4-0.6,0.7-1.1,0.7l0,0c-0.1,0-0.2,0-0.2,0l0,0C425.4,401,424.8,400.4,424.6,399.6z
				 M363.3,399.4c-0.8-0.1-1.5-0.8-1.4-1.7l0,0c0.1-0.9,0.8-1.5,1.7-1.4l0,0c0.9,0.1,1.5,0.8,1.4,1.7l0,0c-0.1,0.8-0.7,1.4-1.6,1.4
				l0,0C363.4,399.4,363.3,399.4,363.3,399.4z M353.4,397c-0.2-0.8,0.4-1.7,1.2-1.8l0,0c0.8-0.2,1.7,0.4,1.8,1.2l0,0
				c0.2,0.8-0.4,1.7-1.2,1.8l0,0c-0.1,0-0.2,0-0.3,0l0,0C354.2,398.2,353.5,397.7,353.4,397z M423.7,393.5c-0.1-0.8,0.4-1.6,1.3-1.8
				l0,0c0.9-0.1,1.7,0.4,1.8,1.3l0,0c0.1,0.8-0.4,1.6-1.3,1.8l0,0c-0.1,0-0.2,0-0.2,0l0,0C424.5,394.8,423.8,394.3,423.7,393.5z
				 M429.9,394.5c-0.8-0.3-1.1-1.3-0.8-2l0,0c0.3-0.8,1.3-1.1,2.1-0.8l0,0c0.8,0.3,1.1,1.3,0.8,2.1l0,0c-0.2,0.6-0.8,0.9-1.4,0.9
				l0,0C430.3,394.6,430.1,394.5,429.9,394.5z M363.8,393.2c-0.8-0.1-1.5-0.8-1.4-1.7l0,0c0.1-0.9,0.8-1.5,1.7-1.4l0,0
				c0.9,0.1,1.5,0.8,1.4,1.7l0,0c-0.1,0.8-0.7,1.4-1.6,1.4l0,0C363.8,393.2,363.8,393.2,363.8,393.2z M352.2,390.9
				c-0.2-0.8,0.4-1.7,1.2-1.8l0,0c0.8-0.2,1.7,0.4,1.8,1.2l0,0c0.2,0.8-0.4,1.7-1.2,1.8l0,0c-0.1,0-0.2,0-0.3,0l0,0
				C353,392.1,352.3,391.6,352.2,390.9z M432.4,388.8c-0.8-0.3-1.1-1.3-0.8-2l0,0l0,0l0,0c0.3-0.8,1.3-1.1,2-0.8l0,0
				c0.8,0.3,1.1,1.3,0.8,2l0,0c-0.3,0.6-0.8,0.9-1.4,0.9l0,0C432.8,388.9,432.6,388.9,432.4,388.8z M422.8,387.4
				c-0.1-0.8,0.4-1.6,1.3-1.8l0,0c0.8-0.1,1.6,0.4,1.8,1.3l0,0c0.1,0.8-0.4,1.6-1.3,1.8l0,0c-0.1,0-0.2,0-0.2,0l0,0
				C423.5,388.7,422.9,388.1,422.8,387.4z M364.2,387.1c-0.8-0.1-1.5-0.8-1.4-1.7l0,0c0.1-0.9,0.8-1.5,1.7-1.4l0,0
				c0.9,0.1,1.5,0.8,1.4,1.7l0,0c-0.1,0.8-0.7,1.4-1.6,1.4l0,0C364.3,387.1,364.3,387.1,364.2,387.1z M447,383.3
				c-0.3-0.8,0.2-1.7,1-2l0,0c0.8-0.3,1.7,0.2,2,1l0,0c0.3,0.8-0.2,1.7-1,2l0,0c-0.2,0-0.3,0.1-0.5,0.1l0,0
				C447.8,384.4,447.2,384,447,383.3z M434.7,383c-0.8-0.3-1.3-1.1-1-2l0,0c0.3-0.8,1.1-1.3,2-1l0,0c0.8,0.3,1.3,1.1,1,2l0,0
				c-0.2,0.7-0.8,1.1-1.5,1.1l0,0C435.1,383.1,434.9,383.1,434.7,383z M421.8,381.2L421.8,381.2c-0.1-0.8,0.4-1.6,1.3-1.8l0,0
				c0.8-0.1,1.6,0.4,1.8,1.3l0,0c0.1,0.8-0.5,1.6-1.3,1.8l0,0c-0.1,0-0.2,0-0.2,0l0,0C422.6,382.5,421.9,382,421.8,381.2z
				 M449.3,381.3c-0.9-0.1-1.5-0.9-1.4-1.7l0,0c0.1-0.9,0.9-1.5,1.7-1.4l0,0c0.9,0.1,1.5,0.9,1.4,1.7l0,0c-0.1,0.8-0.8,1.4-1.5,1.4
				l0,0C449.4,381.3,449.4,381.3,449.3,381.3z M364.7,380.9c-0.9-0.1-1.5-0.8-1.4-1.7l0,0c0.1-0.9,0.8-1.5,1.7-1.4l0,0
				c0.9,0.1,1.5,0.8,1.4,1.7l0,0c-0.1,0.8-0.7,1.4-1.5,1.4l0,0C364.8,380.9,364.8,380.9,364.7,380.9z M445.1,377.4
				c-0.3-0.8,0.2-1.7,1-1.9l0,0c0.8-0.3,1.7,0.2,2,1l0,0c0.3,0.8-0.2,1.7-1,2l0,0c-0.2,0-0.3,0.1-0.5,0.1l0,0
				C445.9,378.5,445.3,378,445.1,377.4z M436.6,377.1c-0.8-0.3-1.3-1.1-1-2l0,0c0.3-0.8,1.1-1.3,1.9-1l0,0c0.8,0.3,1.3,1.1,1,2l0,0
				c-0.2,0.7-0.8,1.1-1.5,1.1l0,0C437,377.2,436.8,377.2,436.6,377.1z M420.9,375.1c-0.1-0.8,0.4-1.6,1.3-1.8l0,0
				c0.8-0.1,1.6,0.5,1.8,1.3l0,0l0,0l0,0c0.1,0.8-0.4,1.6-1.3,1.8l0,0c-0.1,0-0.2,0-0.2,0l0,0C421.6,376.4,421,375.8,420.9,375.1z
				 M450,375.1c-0.9-0.1-1.5-0.9-1.4-1.7l0,0c0.1-0.9,0.9-1.5,1.7-1.4l0,0c0.9,0.1,1.5,0.9,1.4,1.7l0,0c-0.1,0.8-0.8,1.4-1.6,1.4
				l0,0C450.1,375.2,450.1,375.2,450,375.1z M365.2,374.7c-0.9-0.1-1.5-0.8-1.4-1.7l0,0c0.1-0.9,0.8-1.5,1.7-1.4l0,0
				c0.9,0.1,1.5,0.8,1.4,1.7l0,0c-0.1,0.8-0.7,1.4-1.5,1.4l0,0C365.3,374.7,365.3,374.7,365.2,374.7z M443.2,371.5
				c-0.3-0.8,0.2-1.7,1-2l0,0c0.8-0.3,1.7,0.2,1.9,1l0,0c0.3,0.8-0.2,1.7-1,1.9l0,0c-0.2,0-0.3,0.1-0.5,0.1l0,0
				C444,372.6,443.4,372.1,443.2,371.5z M438.5,371.2c-0.8-0.3-1.3-1.1-1-2l0,0c0.3-0.8,1.1-1.3,2-1l0,0c0.8,0.3,1.3,1.1,1,1.9l0,0
				c-0.2,0.7-0.8,1.1-1.5,1.1l0,0C438.8,371.3,438.7,371.3,438.5,371.2z M419.9,368.9c-0.1-0.9,0.5-1.6,1.3-1.8l0,0
				c0.8-0.1,1.6,0.4,1.8,1.3l0,0c0.1,0.8-0.5,1.6-1.3,1.8l0,0c-0.1,0-0.2,0-0.2,0l0,0C420.7,370.3,420,369.7,419.9,368.9z
				 M450.7,369c-0.8-0.1-1.5-0.9-1.4-1.7l0,0c0.1-0.9,0.9-1.5,1.7-1.4l0,0c0.8,0.1,1.5,0.9,1.4,1.7l0,0c-0.1,0.8-0.8,1.4-1.5,1.4
				l0,0C450.8,369,450.7,369,450.7,369z M365.7,368.5c-0.9-0.1-1.5-0.8-1.4-1.7l0,0c0.1-0.9,0.8-1.5,1.7-1.4l0,0
				c0.8,0.1,1.5,0.8,1.4,1.7l0,0c-0.1,0.8-0.7,1.4-1.5,1.4l0,0C365.8,368.5,365.7,368.5,365.7,368.5z M441.3,365.6
				c0-0.1,0-0.2,0-0.2l0,0c-0.3,0.1-0.6,0.1-0.8,0l0,0c-0.8-0.3-1.3-1.1-1-2l0,0c0.3-0.8,1.1-1.3,2-1l0,0c0.6,0.2,1,0.7,1.1,1.2l0,0
				c0.8-0.2,1.6,0.3,1.8,1l0,0c0.3,0.8-0.2,1.7-1,2l0,0c-0.2,0-0.3,0.1-0.5,0.1l0,0C442.1,366.6,441.5,366.2,441.3,365.6z
				 M419,362.8c-0.1-0.9,0.4-1.7,1.3-1.8l0,0c0.8-0.1,1.6,0.4,1.8,1.3l0,0c0.1,0.9-0.4,1.6-1.3,1.8l0,0c-0.1,0-0.2,0-0.2,0l0,0
				C419.8,364.1,419.1,363.6,419,362.8z M451.4,362.8c-0.9-0.1-1.5-0.9-1.4-1.7l0,0c0.1-0.9,0.9-1.5,1.7-1.4l0,0
				c0.9,0.1,1.5,0.9,1.4,1.7l0,0c-0.1,0.8-0.8,1.4-1.5,1.4l0,0C451.5,362.8,451.4,362.8,451.4,362.8z M366.2,362.3
				c-0.9-0.1-1.5-0.8-1.4-1.7l0,0c0.1-0.9,0.8-1.5,1.7-1.4l0,0c0.9,0.1,1.5,0.8,1.4,1.7l0,0c-0.1,0.8-0.7,1.4-1.6,1.4l0,0
				C366.3,362.3,366.2,362.3,366.2,362.3z M418,356.7c-0.1-0.8,0.4-1.6,1.3-1.8l0,0c0.8-0.1,1.6,0.4,1.8,1.3l0,0l0,0l0,0
				c0.1,0.9-0.4,1.6-1.3,1.8l0,0c-0.1,0-0.2,0-0.2,0l0,0C418.8,358,418.2,357.4,418,356.7z M452,356.6c-0.9-0.1-1.5-0.9-1.4-1.7l0,0
				c0.1-0.9,0.9-1.5,1.7-1.4l0,0c0.9,0.1,1.5,0.9,1.4,1.7l0,0c-0.1,0.8-0.8,1.4-1.5,1.4l0,0C452.2,356.6,452.1,356.6,452,356.6z
				 M366.7,356.1c-0.9-0.1-1.5-0.8-1.4-1.7l0,0c0.1-0.9,0.8-1.5,1.7-1.4l0,0c0.8,0.1,1.5,0.8,1.4,1.7l0,0c-0.1,0.8-0.7,1.4-1.6,1.4
				l0,0C366.8,356.1,366.7,356.1,366.7,356.1z M375.5,355.5c-0.7-0.5-0.9-1.5-0.4-2.2l0,0c0.5-0.7,1.5-0.9,2.2-0.4l0,0
				c0.7,0.5,0.9,1.5,0.4,2.2l0,0c-0.3,0.4-0.8,0.7-1.3,0.7l0,0C376.1,355.7,375.8,355.6,375.5,355.5z M372.6,351.1
				c-0.3-0.8,0.1-1.7,1-2l0,0c0.8-0.3,1.7,0.1,2,0.9l0,0c0.3,0.8-0.1,1.7-0.9,2l0,0c-0.2,0.1-0.3,0.1-0.5,0.1l0,0
				C373.4,352.2,372.8,351.8,372.6,351.1z M417.1,350.5L417.1,350.5c-0.1-0.8,0.4-1.6,1.3-1.8l0,0c0.8-0.1,1.6,0.5,1.8,1.3l0,0l0,0
				l0,0c0.1,0.8-0.4,1.6-1.3,1.8l0,0c-0.1,0-0.2,0-0.2,0l0,0C417.9,351.8,417.2,351.3,417.1,350.5z M379.1,350.4
				c-0.7-0.5-0.9-1.5-0.4-2.2l0,0c0.5-0.7,1.5-0.9,2.2-0.4l0,0c0.7,0.5,0.9,1.5,0.4,2.2l0,0c-0.3,0.4-0.8,0.6-1.3,0.6l0,0
				C379.7,350.7,379.4,350.6,379.1,350.4z M452.7,350.4c-0.9-0.1-1.5-0.9-1.4-1.7l0,0c0.1-0.8,0.9-1.5,1.7-1.4l0,0
				c0.8,0.1,1.5,0.9,1.4,1.7l0,0c-0.1,0.8-0.8,1.4-1.5,1.4l0,0C452.8,350.5,452.8,350.4,452.7,350.4z M367.2,349.9
				c-0.8-0.1-1.5-0.8-1.4-1.7l0,0c0.1-0.8,0.8-1.5,1.7-1.4l0,0c0.9,0.1,1.5,0.8,1.4,1.7l0,0c-0.1,0.8-0.7,1.4-1.5,1.4l0,0
				C367.2,349.9,367.2,349.9,367.2,349.9z M370.5,345.3c-0.3-0.8,0.1-1.7,1-2l0,0c0.8-0.3,1.7,0.1,2,1l0,0c0.3,0.8-0.1,1.7-0.9,2
				l0,0c-0.2,0.1-0.3,0.1-0.5,0.1l0,0C371.4,346.3,370.8,345.9,370.5,345.3z M416.1,344.4c-0.1-0.8,0.4-1.6,1.3-1.8l0,0
				c0.8-0.1,1.6,0.5,1.8,1.3l0,0c0.1,0.8-0.4,1.6-1.3,1.8l0,0c-0.1,0-0.1,0-0.2,0l0,0C416.9,345.7,416.3,345.2,416.1,344.4z
				 M383,345.4c-0.9-0.1-1.5-0.9-1.4-1.7l0,0c0.1-0.9,0.9-1.5,1.7-1.4l0,0c0.8,0.1,1.5,0.9,1.3,1.7l0,0c-0.1,0.8-0.8,1.4-1.5,1.4
				l0,0C383.1,345.4,383,345.4,383,345.4z M453.4,344.3c-0.9-0.1-1.5-0.9-1.4-1.7l0,0c0.1-0.9,0.9-1.5,1.7-1.4l0,0
				c0.9,0.1,1.5,0.9,1.4,1.7l0,0c-0.1,0.8-0.8,1.4-1.5,1.4l0,0C453.5,344.3,453.4,344.3,453.4,344.3z M367.6,343.7
				c-0.8-0.1-1.5-0.8-1.4-1.7l0,0c0.1-0.9,0.8-1.5,1.7-1.4l0,0c0.9,0.1,1.5,0.8,1.4,1.7l0,0c-0.1,0.8-0.7,1.4-1.6,1.4l0,0
				C367.7,343.7,367.7,343.7,367.6,343.7z M368.5,339.4c-0.3-0.8,0.1-1.7,0.9-2l0,0c0.8-0.3,1.7,0.1,2,0.9l0,0
				c0.3,0.8-0.1,1.7-0.9,2l0,0c-0.2,0.1-0.3,0.1-0.5,0.1l0,0C369.3,340.4,368.7,340,368.5,339.4z M415.2,338.2
				c-0.1-0.8,0.4-1.6,1.3-1.8l0,0c0.8-0.1,1.6,0.5,1.8,1.3l0,0c0.1,0.8-0.5,1.6-1.3,1.8l0,0c-0.1,0-0.2,0-0.2,0l0,0
				C416,339.6,415.3,339,415.2,338.2z M383.7,339.2c-0.8-0.1-1.5-0.9-1.3-1.7l0,0c0.1-0.8,0.9-1.5,1.7-1.3l0,0
				c0.8,0.1,1.5,0.9,1.3,1.7l0,0c-0.1,0.8-0.8,1.4-1.5,1.4l0,0C383.9,339.3,383.8,339.3,383.7,339.2z M454.1,338.1
				c-0.9-0.1-1.5-0.9-1.4-1.7l0,0c0.1-0.9,0.9-1.5,1.7-1.4l0,0c0.8,0.1,1.5,0.9,1.4,1.7l0,0c-0.1,0.8-0.8,1.4-1.5,1.4l0,0
				C454.2,338.1,454.1,338.1,454.1,338.1z M368.1,337.5c-0.8-0.1-1.5-0.8-1.4-1.7l0,0c0.1-0.8,0.8-1.5,1.7-1.4l0,0
				c0.9,0.1,1.5,0.8,1.4,1.7l0,0c-0.1,0.8-0.7,1.4-1.6,1.4l0,0C368.2,337.5,368.2,337.5,368.1,337.5z M414.2,332.1
				c-0.1-0.8,0.5-1.6,1.3-1.8l0,0c0.8-0.1,1.6,0.4,1.8,1.3l0,0c0,0,0,0,0,0l0,0c0.1,0.8-0.5,1.6-1.3,1.8l0,0c-0.1,0-0.2,0-0.2,0l0,0
				C415,333.4,414.4,332.9,414.2,332.1z M384.5,333.1c-0.9-0.1-1.5-0.9-1.3-1.7l0,0c0.1-0.8,0.9-1.5,1.7-1.3l0,0
				c0.9,0.1,1.5,0.9,1.4,1.7l0,0c-0.1,0.8-0.8,1.4-1.5,1.4l0,0C384.7,333.1,384.6,333.1,384.5,333.1z M454.7,331.9
				c-0.9-0.1-1.5-0.9-1.4-1.7l0,0c0.1-0.9,0.9-1.5,1.7-1.4l0,0c0.9,0.1,1.5,0.9,1.4,1.7l0,0c-0.1,0.8-0.8,1.4-1.5,1.4l0,0
				C454.9,331.9,454.8,331.9,454.7,331.9z M413.3,326c-0.1-0.9,0.5-1.7,1.3-1.8l0,0c0.8-0.1,1.6,0.4,1.8,1.3l0,0
				c0.1,0.8-0.4,1.6-1.3,1.8l0,0c-0.1,0-0.2,0-0.2,0l0,0C414.1,327.3,413.4,326.7,413.3,326z M385.3,326.9c-0.9-0.1-1.5-0.9-1.4-1.7
				l0,0c0.1-0.8,0.9-1.5,1.7-1.3l0,0c0.8,0.1,1.5,0.9,1.3,1.7l0,0c-0.1,0.8-0.8,1.4-1.5,1.4l0,0
				C385.4,326.9,385.4,326.9,385.3,326.9z M455.4,325.7c-0.9-0.1-1.5-0.9-1.4-1.7l0,0c0.1-0.9,0.9-1.5,1.7-1.4l0,0
				c0.9,0.1,1.5,0.9,1.4,1.7l0,0c-0.1,0.8-0.8,1.4-1.5,1.4l0,0C455.5,325.8,455.5,325.7,455.4,325.7z M412.4,319.8
				c-0.1-0.8,0.4-1.6,1.3-1.8l0,0c0.8-0.1,1.6,0.4,1.8,1.3l0,0c0.1,0.8-0.4,1.6-1.3,1.8l0,0c-0.1,0-0.2,0-0.2,0l0,0
				C413.1,321.1,412.5,320.6,412.4,319.8z M386.1,320.8c-0.8-0.1-1.5-0.9-1.3-1.7l0,0c0.1-0.8,0.9-1.5,1.7-1.3l0,0
				c0.9,0.1,1.5,0.9,1.4,1.7l0,0c-0.1,0.8-0.8,1.4-1.5,1.4l0,0C386.2,320.8,386.1,320.8,386.1,320.8z M467.9,320.7
				c-0.8-0.2-1.3-1.1-1.1-1.9l0,0c0.2-0.8,1.1-1.3,1.9-1.1l0,0c0.8,0.2,1.3,1.1,1.1,1.9l0,0c-0.2,0.7-0.8,1.1-1.5,1.1l0,0
				C468.2,320.7,468.1,320.7,467.9,320.7z M456.1,319.6c-0.9-0.1-1.5-0.9-1.4-1.7l0,0c0.1-0.9,0.9-1.5,1.7-1.4l0,0
				c0.8,0.1,1.5,0.9,1.4,1.7l0,0c-0.1,0.8-0.8,1.4-1.5,1.4l0,0C456.2,319.6,456.2,319.6,456.1,319.6z M460.8,317.8
				c0-0.9,0.7-1.6,1.6-1.6l0,0c0.9,0,1.6,0.7,1.6,1.6l0,0c0,0.9-0.7,1.6-1.6,1.6l0,0C461.5,319.4,460.8,318.7,460.8,317.8z
				 M471.1,318c-0.9-0.1-1.5-0.8-1.4-1.7l0,0c0,0,0,0,0,0l0,0c0.1-0.9,0.8-1.5,1.7-1.4l0,0c0.8,0.1,1.5,0.8,1.4,1.7h0
				c-0.1,0.8-0.7,1.4-1.5,1.4l0,0C471.2,318,471.2,318,471.1,318z M411.4,313.7L411.4,313.7c-0.1-0.8,0.4-1.6,1.3-1.8l0,0
				c0.8-0.1,1.6,0.4,1.8,1.3l0,0c0.1,0.8-0.4,1.6-1.3,1.8l0,0c-0.1,0-0.2,0-0.2,0l0,0C412.2,315,411.5,314.5,411.4,313.7z
				 M386.8,314.6c-0.9-0.1-1.5-0.9-1.3-1.7l0,0c0.1-0.8,0.9-1.5,1.7-1.3l0,0c0.9,0.1,1.5,0.9,1.3,1.7l0,0c-0.1,0.8-0.8,1.4-1.5,1.4
				l0,0C387,314.6,386.9,314.6,386.8,314.6z M471.7,311.8c-0.8-0.1-1.5-0.8-1.4-1.7l0,0l0,0l0,0c0.1-0.9,0.8-1.5,1.7-1.4l0,0
				c0.8,0.1,1.5,0.8,1.4,1.7l0,0c-0.1,0.8-0.7,1.4-1.5,1.4l0,0C471.8,311.8,471.8,311.8,471.7,311.8z M410.6,307.4
				c-0.1-0.9,0.5-1.6,1.4-1.7l0,0c0.9-0.1,1.6,0.5,1.7,1.4l0,0c0.1,0.8-0.5,1.6-1.4,1.7l0,0c-0.1,0-0.1,0-0.2,0l0,0
				C411.3,308.9,410.7,308.2,410.6,307.4z M387.6,308.4c-0.8-0.1-1.5-0.9-1.3-1.7l0,0c0.1-0.8,0.9-1.5,1.7-1.3l0,0
				c0.9,0.1,1.5,0.9,1.4,1.7l0,0c-0.1,0.8-0.8,1.4-1.5,1.4l0,0C387.8,308.5,387.7,308.4,387.6,308.4z M472.3,305.6
				c-0.9-0.1-1.5-0.8-1.4-1.7l0,0c0,0,0,0,0,0l0,0c0.1-0.9,0.8-1.5,1.7-1.4l0,0c0.8,0.1,1.5,0.8,1.4,1.7l0,0
				c-0.1,0.8-0.7,1.4-1.5,1.4l0,0C472.4,305.6,472.4,305.6,472.3,305.6z M410,301.3c-0.1-0.9,0.5-1.6,1.4-1.7l0,0
				c0.9-0.1,1.6,0.5,1.7,1.4l0,0c0.1,0.9-0.5,1.6-1.4,1.7l0,0c0,0-0.1,0-0.2,0l0,0C410.7,302.7,410.1,302.1,410,301.3z M388.4,302.3
				c-0.9-0.1-1.5-0.9-1.3-1.7l0,0c0.1-0.9,0.9-1.5,1.7-1.3l0,0c0.9,0.1,1.5,0.9,1.4,1.7l0,0c-0.1,0.8-0.8,1.4-1.5,1.4l0,0
				C388.5,302.3,388.5,302.3,388.4,302.3z M472.9,299.4c-0.9-0.1-1.5-0.8-1.4-1.7l0,0c0.1-0.8,0.8-1.5,1.7-1.4l0,0
				c0.8,0.1,1.5,0.8,1.4,1.7l0,0c-0.1,0.8-0.8,1.4-1.6,1.4l0,0C473,299.4,472.9,299.4,472.9,299.4z M409.4,295.1
				c-0.1-0.9,0.5-1.6,1.4-1.7l0,0c0.9-0.1,1.6,0.5,1.7,1.4l0,0c0.1,0.9-0.5,1.6-1.4,1.7l0,0c0,0-0.1,0-0.1,0l0,0
				C410.1,296.5,409.4,295.9,409.4,295.1z M389.2,296.1c-0.8-0.1-1.5-0.9-1.3-1.7l0,0c0.1-0.9,0.9-1.5,1.7-1.3l0,0
				c0.8,0.1,1.5,0.9,1.3,1.7l0,0c-0.1,0.8-0.8,1.4-1.5,1.4l0,0C389.3,296.1,389.2,296.1,389.2,296.1z M473.5,293.2
				c-0.8-0.1-1.5-0.8-1.4-1.7l0,0c0,0,0,0,0,0l0,0c0.1-0.8,0.8-1.5,1.7-1.4l0,0c0.8,0.1,1.5,0.8,1.4,1.7l0,0
				c-0.1,0.8-0.8,1.4-1.6,1.4l0,0C473.6,293.2,473.5,293.2,473.5,293.2z M408.8,288.9c-0.1-0.9,0.5-1.6,1.4-1.7l0,0
				c0.9-0.1,1.6,0.5,1.7,1.4l0,0c0.1,0.9-0.5,1.6-1.4,1.7l0,0c0,0-0.1,0-0.1,0l0,0C409.5,290.3,408.8,289.7,408.8,288.9z M390,289.9
				c-0.8-0.1-1.5-0.9-1.3-1.7l0,0c0.1-0.9,0.9-1.5,1.7-1.4l0,0c0.9,0.1,1.5,0.9,1.4,1.7l0,0c-0.1,0.8-0.8,1.4-1.5,1.4l0,0
				C390.1,290,390,290,390,289.9z M474.1,287.1c-0.9-0.1-1.5-0.8-1.4-1.7l0,0c0.1-0.9,0.8-1.5,1.7-1.4l0,0c0.8,0.1,1.5,0.8,1.4,1.7
				l0,0c-0.1,0.8-0.7,1.4-1.5,1.4l0,0C474.2,287.1,474.1,287.1,474.1,287.1z M408.2,282.7c-0.1-0.8,0.5-1.6,1.4-1.7l0,0
				c0.8-0.1,1.6,0.5,1.7,1.4l0,0c0.1,0.9-0.5,1.6-1.4,1.7l0,0c0,0-0.1,0-0.1,0l0,0C408.9,284.1,408.2,283.5,408.2,282.7z
				 M390.6,283.8c-0.9-0.1-1.5-0.8-1.4-1.7l0,0c0.1-0.9,0.8-1.5,1.7-1.4l0,0c0.9,0.1,1.5,0.8,1.4,1.7l0,0c-0.1,0.8-0.8,1.4-1.5,1.4
				l0,0C390.7,283.8,390.7,283.8,390.6,283.8z M474.6,280.9c-0.9-0.1-1.5-0.8-1.4-1.7l0,0c0.1-0.9,0.8-1.5,1.7-1.4l0,0
				c0.9,0.1,1.5,0.8,1.4,1.7h0c-0.1,0.8-0.7,1.4-1.5,1.4l0,0C474.7,280.9,474.7,280.9,474.6,280.9z M407.6,276.5
				c-0.1-0.9,0.5-1.6,1.4-1.7l0,0c0.9-0.1,1.6,0.5,1.7,1.4l0,0c0.1,0.9-0.5,1.6-1.4,1.7l0,0c0,0-0.1,0-0.1,0l0,0
				C408.3,277.9,407.6,277.3,407.6,276.5z M391.3,277.6c-0.9-0.1-1.5-0.8-1.4-1.7l0,0c0.1-0.9,0.8-1.5,1.7-1.4l0,0
				c0.9,0.1,1.5,0.8,1.4,1.7l0,0c-0.1,0.8-0.7,1.4-1.5,1.4l0,0C391.4,277.6,391.3,277.6,391.3,277.6z M475.2,274.7
				c-0.8-0.1-1.5-0.8-1.4-1.7l0,0c0.1-0.9,0.8-1.5,1.7-1.4l0,0c0.9,0.1,1.5,0.8,1.4,1.7l0,0c-0.1,0.8-0.8,1.4-1.6,1.4l0,0
				C475.3,274.7,475.3,274.7,475.2,274.7z M406.9,270.4c-0.1-0.9,0.5-1.6,1.4-1.7l0,0c0.9-0.1,1.6,0.5,1.7,1.4l0,0
				c0.1,0.9-0.5,1.6-1.4,1.7l0,0c0,0-0.1,0-0.2,0l0,0C407.7,271.8,407,271.2,406.9,270.4z M391.9,271.4c-0.8-0.1-1.5-0.8-1.4-1.7
				l0,0c0.1-0.9,0.8-1.5,1.7-1.4l0,0c0.8,0.1,1.5,0.8,1.4,1.7l0,0c-0.1,0.8-0.8,1.4-1.5,1.4l0,0C392,271.4,391.9,271.4,391.9,271.4z
				 M475.8,268.5c-0.8-0.1-1.5-0.8-1.4-1.7l0,0l0,0l0,0c0.1-0.8,0.8-1.5,1.7-1.4l0,0c0.9,0.1,1.5,0.8,1.4,1.7l0,0
				c-0.1,0.8-0.7,1.4-1.5,1.4l0,0C475.9,268.5,475.9,268.5,475.8,268.5z M406.3,264.2c-0.1-0.9,0.5-1.6,1.4-1.7l0,0
				c0.8-0.1,1.6,0.5,1.7,1.4l0,0c0.1,0.9-0.5,1.6-1.4,1.7l0,0c0,0-0.1,0-0.1,0l0,0C407.1,265.6,406.4,265,406.3,264.2z M392.5,265.2
				c-0.9-0.1-1.5-0.8-1.4-1.7l0,0c0.1-0.8,0.8-1.5,1.7-1.4l0,0c0.9,0.1,1.5,0.8,1.4,1.7l0,0c-0.1,0.8-0.8,1.4-1.6,1.4l0,0
				C392.6,265.2,392.5,265.2,392.5,265.2z M476.4,262.3c-0.9-0.1-1.5-0.8-1.4-1.7l0,0l0,0l0,0c0.1-0.9,0.8-1.5,1.7-1.4l0,0
				c0.9,0.1,1.5,0.8,1.4,1.7l0,0c-0.1,0.8-0.8,1.4-1.6,1.4l0,0C476.5,262.3,476.5,262.3,476.4,262.3z M405.7,258
				c-0.1-0.9,0.5-1.6,1.4-1.7l0,0c0.9-0.1,1.6,0.5,1.7,1.4l0,0c0.1,0.9-0.5,1.6-1.4,1.7l0,0c0,0-0.1,0-0.1,0l0,0
				C406.5,259.4,405.8,258.8,405.7,258z M393.1,259.1c-0.9-0.1-1.5-0.8-1.4-1.7l0,0c0.1-0.9,0.8-1.5,1.7-1.4l0,0
				c0.9,0.1,1.5,0.8,1.4,1.7l0,0c-0.1,0.8-0.7,1.4-1.5,1.4l0,0C393.2,259.1,393.1,259.1,393.1,259.1z M477,256.1
				c-0.8-0.1-1.5-0.8-1.4-1.7l0,0c0.1-0.9,0.8-1.5,1.7-1.4l0,0c0.9,0.1,1.5,0.8,1.4,1.7l0,0c-0.1,0.8-0.8,1.4-1.6,1.4l0,0
				C477.1,256.1,477,256.1,477,256.1z M405.1,251.8c-0.1-0.9,0.5-1.6,1.4-1.7l0,0c0.9-0.1,1.6,0.5,1.7,1.4l0,0
				c0.1,0.9-0.5,1.6-1.4,1.7l0,0c0,0-0.1,0-0.2,0l0,0C405.9,253.2,405.2,252.6,405.1,251.8z M393.7,252.9c-0.8-0.1-1.5-0.8-1.4-1.7
				l0,0c0.1-0.9,0.8-1.5,1.7-1.4l0,0c0.8,0.1,1.5,0.8,1.4,1.7l0,0c-0.1,0.8-0.8,1.4-1.5,1.4l0,0
				C393.8,252.9,393.7,252.9,393.7,252.9z M477.6,249.9c-0.9-0.1-1.5-0.8-1.4-1.7l0,0l0,0l0,0c0.1-0.9,0.8-1.5,1.7-1.4l0,0
				c0.9,0.1,1.5,0.8,1.4,1.7l0,0c-0.1,0.8-0.8,1.4-1.5,1.4l0,0C477.7,250,477.6,250,477.6,249.9z M404.5,245.6
				c-0.1-0.8,0.5-1.6,1.4-1.7l0,0c0.9-0.1,1.6,0.5,1.7,1.4l0,0c0.1,0.9-0.5,1.6-1.4,1.7l0,0c0,0-0.1,0-0.1,0l0,0
				C405.3,247,404.6,246.4,404.5,245.6z M394.3,246.7c-0.9-0.1-1.5-0.8-1.4-1.7l0,0c0.1-0.8,0.8-1.5,1.7-1.4l0,0
				c0.9,0.1,1.5,0.8,1.4,1.7l0,0c-0.1,0.8-0.7,1.4-1.5,1.4l0,0C394.4,246.7,394.3,246.7,394.3,246.7z M478.1,243.8
				c-0.8-0.1-1.5-0.8-1.4-1.7l0,0c0,0,0,0,0,0l0,0c0.1-0.9,0.8-1.5,1.7-1.4l0,0c0.9,0.1,1.5,0.8,1.4,1.7l0,0
				c-0.1,0.8-0.7,1.4-1.5,1.4l0,0C478.2,243.8,478.2,243.8,478.1,243.8z M403.9,239.4c-0.1-0.9,0.5-1.6,1.4-1.7l0,0
				c0.9-0.1,1.6,0.5,1.7,1.4l0,0c0.1,0.8-0.5,1.6-1.4,1.7l0,0c0,0-0.1,0-0.1,0l0,0C404.7,240.9,404,240.3,403.9,239.4z M394.9,240.5
				c-0.9-0.1-1.5-0.8-1.4-1.7l0,0c0.1-0.9,0.8-1.5,1.7-1.4l0,0c0.8,0.1,1.5,0.8,1.4,1.7l0,0c-0.1,0.8-0.8,1.4-1.5,1.4l0,0
				C395,240.5,394.9,240.5,394.9,240.5z M478.7,237.6c-0.9-0.1-1.5-0.8-1.4-1.7l0,0l0,0l0,0c0.1-0.9,0.8-1.5,1.7-1.4l0,0
				c0.9,0.1,1.5,0.8,1.4,1.7l0,0c-0.1,0.8-0.8,1.4-1.5,1.4l0,0C478.8,237.6,478.8,237.6,478.7,237.6z M403.1,233.7
				c-0.3-0.8,0.2-1.7,1-2l0,0c0.8-0.3,1.7,0.2,1.9,1l0,0c0.3,0.8-0.2,1.7-1,2l0,0c-0.1,0-0.3,0.1-0.5,0.1l0,0
				C403.9,234.7,403.3,234.3,403.1,233.7z M395.5,234.3c-0.9-0.1-1.5-0.8-1.4-1.7l0,0c0.1-0.9,0.8-1.5,1.7-1.4l0,0
				c0.9,0.1,1.5,0.8,1.4,1.7l0,0c-0.1,0.8-0.8,1.4-1.6,1.4l0,0C395.6,234.3,395.5,234.3,395.5,234.3z M401.2,227.7
				c-0.3-0.8,0.2-1.7,1-1.9l0,0c0.8-0.3,1.7,0.2,2,1l0,0c0.3,0.8-0.2,1.7-1,2l0,0c-0.2,0-0.3,0.1-0.5,0.1l0,0
				C402,228.8,401.4,228.4,401.2,227.7z M396.1,228.1c-0.9-0.1-1.5-0.8-1.4-1.7l0,0c0.1-0.9,0.8-1.5,1.7-1.4l0,0
				c0.9,0.1,1.5,0.8,1.4,1.7l0,0c-0.1,0.8-0.7,1.4-1.5,1.4l0,0C396.2,228.2,396.1,228.1,396.1,228.1z M399.3,221.8
				c-0.3-0.8,0.2-1.7,1-2l0,0c0.8-0.3,1.7,0.2,2,1l0,0c0.3,0.8-0.2,1.7-1,1.9l0,0c-0.2,0.1-0.3,0.1-0.5,0.1l0,0
				C400.1,222.9,399.5,222.5,399.3,221.8z M396.7,222c-0.9-0.1-1.5-0.8-1.4-1.7l0,0c0.1-0.9,0.8-1.5,1.7-1.4l0,0
				c0.8,0.1,1.5,0.8,1.4,1.7l0,0c-0.1,0.8-0.8,1.4-1.5,1.4l0,0C396.8,222,396.7,222,396.7,222z M397.4,215.9c0,0,0-0.1,0-0.1l0,0
				c0,0,0,0,0,0l0,0c-0.9-0.1-1.5-0.8-1.4-1.7l0,0c0.1-0.9,0.8-1.5,1.7-1.4l0,0c0.7,0.1,1.2,0.6,1.4,1.2l0,0c0.6,0,1.2,0.4,1.4,1.1
				l0,0c0.3,0.8-0.2,1.7-1,2l0,0c-0.2,0.1-0.3,0.1-0.5,0.1l0,0C398.2,217,397.6,216.6,397.4,215.9z"/>
			<path class="st1" d="M338.7,442.9l-8.5-79.2l-7.3-58.2l-6.9-72.2l-4.7,8.1l-7.3,39.4l-8.5,29l-8.9-20.2l-4.8-4.1l-7.3,78.4
				l-9-5.2h-5.6l-8.7,49.2l-8.8-52.6l-7.3-41.6l-6.6-66L216,282.8l-7.5,69.8h-9.9l-6.3-25l-5.8,17.9l-7.5,14.8l-7.1,6.1l-8.8,44.7
				l-8.8-45.2l-7.4-50l-7.2-34.6l-4.8-2.7l-7,37.8l-7.5,8.5l-9.3,18.3l-6.4-30.8l-6.2,45.6L84,370.6l-8.7,59.1l-9-53.4l-7.3-56.1
				l-7.2-28.4l-4.8-2.8l-6.9,37.3l-8.4,52.5l-9.3-31.4c-3-6.9-6.1-13.9-9.1-20.8c0.9-0.5,1.8-0.9,2.8-1.4c3.1,7.1,6.2,14.2,9.3,21.2
				l5.4,18.3l6.2-38.9l7.7-41.7l9.8,5.6l7.5,29.9l7.3,56.1l5.7,33.9l6-40.7l14.6-12.5l8.5-62.4l8.3,39.9l5.6-10.9l7-8l7.7-41.2
				l9.8,5.6l7.5,36l7.4,50l5.8,29.6l5.9-30.2l7.5-6.4l7.1-14.2l8.9-27.9l8.4,33.2h4.7l7.2-67.4l0.1-0.2l17-48.1l8,79.7l7.3,41.5
				l5.8,34.8l6-34h9.1l5.6,3.2l7.4-79.6l9.9,8.4l5.8,13.1l6.1-20.8l7.4-39.7l9.9-16.8l7.8,81.7l7.3,58.1l6.2,58l5.6-30l8.3-2.3
				l0.8,3l-6.4,1.8L338.7,442.9z"/>
		</g>
	</g>
	<g>
		<g>
			<path class="st2" d="M359.2,387.4c-0.2-0.8,0.3-1.7,1.2-1.9l0,0c0.8-0.2,1.7,0.3,1.9,1.2l0,0c0.2,0.8-0.3,1.7-1.2,1.9l0,0
				c-0.1,0-0.2,0-0.3,0l0,0C360,388.6,359.4,388.1,359.2,387.4z M361.5,384.9c-0.8-0.1-1.4-0.9-1.3-1.8l0,0c0.1-0.9,0.9-1.4,1.8-1.3
				l0,0c0.9,0.1,1.4,0.9,1.3,1.8l0,0c-0.1,0.8-0.8,1.3-1.5,1.3l0,0C361.7,384.9,361.6,384.9,361.5,384.9z M357.8,381.3
				c-0.2-0.8,0.3-1.7,1.2-1.9l0,0c0.8-0.2,1.7,0.3,1.9,1.2l0,0c0.2,0.8-0.3,1.7-1.2,1.9l0,0c-0.1,0-0.2,0-0.4,0l0,0
				C358.6,382.5,358,382.1,357.8,381.3z M362.4,378.8c-0.9-0.1-1.4-0.9-1.3-1.8l0,0c0.1-0.9,0.9-1.4,1.8-1.3l0,0
				c0.8,0.1,1.4,0.9,1.3,1.8l0,0c-0.1,0.8-0.8,1.3-1.5,1.3l0,0C362.6,378.8,362.5,378.8,362.4,378.8z M356.4,375.3
				c-0.2-0.8,0.3-1.7,1.2-1.9l0,0c0.8-0.2,1.7,0.3,1.9,1.2l0,0c0.2,0.8-0.3,1.7-1.2,1.9l0,0c-0.1,0-0.2,0-0.3,0l0,0
				C357.2,376.5,356.6,376,356.4,375.3z M363.3,372.6c-0.8-0.1-1.4-0.9-1.3-1.8l0,0c0.1-0.8,0.9-1.4,1.8-1.3l0,0
				c0.8,0.1,1.4,0.9,1.3,1.8l0,0c-0.1,0.8-0.8,1.3-1.5,1.3l0,0C363.5,372.6,363.4,372.6,363.3,372.6z M355,369.2
				c-0.2-0.8,0.3-1.7,1.2-1.9l0,0c0.8-0.2,1.7,0.3,1.9,1.2l0,0c0.2,0.8-0.3,1.7-1.2,1.9l0,0c-0.1,0-0.2,0-0.4,0l0,0
				C355.8,370.4,355.2,370,355,369.2z M364.2,366.5c-0.8-0.1-1.4-0.9-1.3-1.8l0,0c0.1-0.8,0.9-1.4,1.8-1.3l0,0
				c0.8,0.1,1.4,0.9,1.3,1.8l0,0c-0.1,0.8-0.8,1.3-1.5,1.3l0,0C364.4,366.5,364.3,366.5,364.2,366.5z M353.6,363.2
				c-0.2-0.8,0.3-1.7,1.2-1.9l0,0c0.8-0.2,1.7,0.3,1.9,1.2l0,0c0.2,0.8-0.3,1.7-1.2,1.9l0,0c-0.1,0-0.2,0-0.4,0l0,0
				C354.4,364.4,353.8,363.9,353.6,363.2z M365.1,360.3c-0.8-0.1-1.4-0.9-1.3-1.8l0,0c0.1-0.8,0.9-1.4,1.8-1.3l0,0
				c0.9,0.1,1.4,0.9,1.3,1.8l0,0c-0.1,0.8-0.8,1.3-1.5,1.3l0,0C365.3,360.3,365.2,360.3,365.1,360.3z M352.2,357.1
				c-0.2-0.8,0.3-1.7,1.2-1.9l0,0c0.8-0.2,1.7,0.3,1.9,1.2l0,0c0.2,0.8-0.3,1.7-1.2,1.9l0,0c-0.1,0-0.2,0-0.4,0l0,0
				C353,358.3,352.4,357.9,352.2,357.1z M366,354.2c-0.8-0.1-1.4-0.9-1.3-1.8l0,0c0.1-0.9,0.9-1.4,1.8-1.3l0,0
				c0.9,0.1,1.4,0.9,1.3,1.8l0,0c-0.1,0.8-0.8,1.3-1.5,1.3l0,0C366.2,354.2,366.1,354.2,366,354.2z M366.9,348
				c-0.9-0.1-1.4-0.9-1.3-1.8l0,0c0.1-0.8,0.9-1.4,1.8-1.3l0,0c0.8,0.1,1.4,0.9,1.3,1.8l0,0c-0.1,0.8-0.8,1.3-1.5,1.3l0,0
				C367.1,348,367,348,366.9,348z M421.8,343.8c-0.3-0.8,0.1-1.7,0.9-2l0,0c0.8-0.3,1.7,0.1,2,0.9l0,0c0.3,0.8-0.1,1.7-0.9,2l0,0
				c-0.2,0.1-0.4,0.1-0.6,0.1l0,0C422.6,344.7,422,344.4,421.8,343.8z M416.9,344c-0.6-0.6-0.6-1.6,0-2.2l0,0c0.6-0.6,1.6-0.6,2.2,0
				l0,0c0.6,0.6,0.6,1.6,0,2.2l0,0c-0.3,0.3-0.7,0.5-1.1,0.5l0,0C417.6,344.5,417.2,344.3,416.9,344z M367.8,341.9
				c-0.9-0.1-1.4-0.9-1.3-1.8l0,0c0.1-0.8,0.9-1.4,1.8-1.3l0,0c0.8,0.1,1.4,0.9,1.3,1.8l0,0c-0.1,0.8-0.8,1.3-1.5,1.3l0,0
				C368,341.9,367.9,341.9,367.8,341.9z M427.4,341.2c-0.6-0.6-0.6-1.6,0-2.2l0,0c0.6-0.6,1.6-0.6,2.2,0l0,0c0.6,0.6,0.6,1.6,0,2.2
				l0,0c-0.3,0.3-0.7,0.5-1.1,0.5l0,0C428.1,341.7,427.7,341.5,427.4,341.2z M376.2,340.7c-0.3-0.8,0.1-1.7,0.9-2l0,0
				c0.8-0.3,1.7,0.1,2,0.9l0,0c0.3,0.8-0.1,1.7-0.9,2l0,0c-0.2,0.1-0.4,0.1-0.6,0.1l0,0C377,341.6,376.5,341.3,376.2,340.7z
				 M371.3,340.8c-0.8-0.3-1.2-1.2-0.9-2l0,0c0.3-0.8,1.2-1.2,2-0.9l0,0c0.8,0.3,1.2,1.2,0.9,2l0,0c-0.2,0.6-0.8,1-1.4,1l0,0
				C371.7,340.9,371.5,340.9,371.3,340.8z M412.5,339.6c-0.6-0.6-0.6-1.6,0-2.2l0,0c0.6-0.6,1.6-0.6,2.2,0l0,0
				c0.6,0.6,0.6,1.6,0,2.2l0,0c-0.3,0.3-0.7,0.4-1.1,0.4l0,0C413.2,340.1,412.8,339.9,412.5,339.6z M382,338.3
				c-0.3-0.8,0.2-1.7,1-1.9l0,0c0.8-0.2,1.7,0.2,1.9,1l0,0c0.3,0.8-0.2,1.7-1,2l0,0c-0.2,0-0.3,0.1-0.5,0.1l0,0
				C382.8,339.4,382.2,339,382,338.3z M407.7,337.6c-0.8-0.2-1.3-1.1-1.1-1.9l0,0c0.2-0.8,1.1-1.3,1.9-1.1l0,0
				c0.8,0.2,1.3,1.1,1.1,1.9l0,0c-0.2,0.7-0.8,1.2-1.5,1.2l0,0C408,337.7,407.8,337.7,407.7,337.6z M387.9,336.4
				c-0.3-0.8,0.2-1.7,1-1.9l0,0c0.8-0.2,1.7,0.2,1.9,1l0,0c0.3,0.8-0.2,1.7-1,2l0,0c-0.2,0-0.3,0.1-0.5,0.1l0,0
				C388.7,337.5,388.1,337.1,387.9,336.4z M431.8,336.8c-0.6-0.6-0.6-1.6,0-2.2l0,0c0.6-0.6,1.6-0.6,2.2,0l0,0
				c0.6,0.6,0.6,1.6,0,2.2l0,0c-0.3,0.3-0.7,0.5-1.1,0.5l0,0C432.5,337.3,432.1,337.1,431.8,336.8z M402,333.6
				c-0.5-0.7-0.3-1.7,0.4-2.1l0,0c0.7-0.5,1.7-0.3,2.2,0.4l0,0c0.5,0.7,0.3,1.7-0.4,2.1l0,0c-0.3,0.2-0.6,0.3-0.9,0.3l0,0
				C402.8,334.3,402.3,334.1,402,333.6z M392.3,332.6c-0.7-0.5-0.9-1.4-0.5-2.1l0,0c0.5-0.7,1.4-0.9,2.1-0.5l0,0
				c0.7,0.5,0.9,1.4,0.5,2.1l0,0c-0.3,0.5-0.8,0.7-1.3,0.7l0,0C392.9,332.9,392.6,332.8,392.3,332.6z M435.5,331.9
				c-0.8-0.4-1.1-1.3-0.7-2.1l0,0c0.4-0.8,1.3-1.1,2.1-0.7l0,0c0.8,0.4,1.1,1.3,0.7,2.1l0,0c-0.3,0.5-0.8,0.9-1.4,0.9l0,0
				C435.9,332.1,435.7,332,435.5,331.9z M398.6,328.5c-0.5-0.7-0.3-1.7,0.4-2.1l0,0c0.7-0.5,1.7-0.3,2.2,0.4l0,0
				c0.5,0.7,0.3,1.7-0.4,2.1l0,0c-0.3,0.2-0.6,0.3-0.9,0.3l0,0C399.4,329.2,398.9,328.9,398.6,328.5z M395.7,327.4
				c-0.7-0.5-0.9-1.4-0.5-2.1l0,0c0.5-0.7,1.4-0.9,2.1-0.5l0,0c0.7,0.5,0.9,1.4,0.5,2.1l0,0c-0.3,0.5-0.8,0.7-1.3,0.7l0,0
				C396.2,327.6,395.9,327.5,395.7,327.4z M438.2,326.3c-0.8-0.4-1.1-1.3-0.7-2.1l0,0c0.4-0.8,1.3-1.1,2.1-0.7l0,0
				c0.8,0.4,1.1,1.3,0.7,2.1l0,0c-0.3,0.5-0.8,0.9-1.4,0.9l0,0C438.7,326.5,438.4,326.4,438.2,326.3z M447.6,321.5
				c-0.9-0.1-1.5-0.8-1.4-1.7l0,0c0.1-0.9,0.8-1.5,1.7-1.4l0,0c0.9,0.1,1.5,0.8,1.4,1.7l0,0c-0.1,0.8-0.8,1.4-1.5,1.4l0,0
				C447.7,321.5,447.7,321.5,447.6,321.5z M440.9,320.8c-0.8-0.4-1.1-1.3-0.7-2.1l0,0c0.4-0.8,1.3-1.1,2.1-0.7l0,0
				c0.8,0.4,1.1,1.3,0.7,2.1l0,0c-0.3,0.5-0.8,0.9-1.4,0.9l0,0C441.4,320.9,441.2,320.9,440.9,320.8z M451.7,317.9
				c-0.5-0.7-0.4-1.6,0.3-2.2l0,0c0.7-0.5,1.7-0.4,2.2,0.2l0,0c0.5,0.7,0.4,1.7-0.3,2.2l0,0c-0.3,0.2-0.6,0.3-1,0.3l0,0
				C452.4,318.5,452,318.3,451.7,317.9z M456.5,314c-0.7-0.5-0.8-1.5-0.3-2.2l0,0c0.5-0.7,1.5-0.8,2.2-0.3l0,0
				c0.7,0.5,0.8,1.5,0.3,2.2l0,0c-0.3,0.4-0.8,0.6-1.2,0.6l0,0C457.1,314.3,456.8,314.2,456.5,314z M460.2,309
				c-0.7-0.5-0.8-1.5-0.3-2.2l0,0c0.5-0.7,1.5-0.8,2.2-0.3l0,0c0.7,0.5,0.8,1.5,0.3,2.2l0,0c-0.3,0.4-0.8,0.6-1.2,0.6l0,0
				C460.8,309.3,460.5,309.2,460.2,309z M470.4,307.8c-0.7-0.5-0.9-1.4-0.5-2.1l0,0c0.5-0.7,1.4-0.9,2.1-0.5l0,0
				c0.7,0.5,0.9,1.4,0.5,2.1l0,0c-0.3,0.5-0.8,0.7-1.3,0.7l0,0C471,308,470.7,307.9,470.4,307.8z M465.1,306.6c-0.8-0.3-1.3-1.1-1-2
				l0,0c0.3-0.8,1.2-1.3,2-1l0,0c0.8,0.3,1.3,1.1,1,2l0,0c-0.2,0.6-0.8,1.1-1.5,1.1l0,0C465.5,306.7,465.3,306.7,465.1,306.6z
				 M473.8,302.5c-0.7-0.5-0.9-1.4-0.5-2.1l0,0c0.5-0.7,1.4-0.9,2.1-0.5l0,0c0.7,0.5,0.9,1.4,0.5,2.1l0,0c-0.3,0.5-0.8,0.7-1.3,0.7
				l0,0C474.3,302.8,474,302.7,473.8,302.5z M477.1,297.3c-0.7-0.5-0.9-1.4-0.5-2.1l0,0c0.5-0.7,1.4-0.9,2.1-0.5l0,0
				c0.7,0.5,0.9,1.4,0.5,2.1l0,0c-0.3,0.5-0.8,0.7-1.3,0.7l0,0C477.7,297.6,477.4,297.5,477.1,297.3z M480.8,292.3
				c-0.7-0.5-0.8-1.5-0.2-2.2l0,0c0.5-0.7,1.5-0.8,2.2-0.2l0,0c0.7,0.5,0.8,1.5,0.2,2.2l0,0c-0.3,0.4-0.8,0.6-1.2,0.6l0,0
				C481.5,292.7,481.1,292.6,480.8,292.3z"/>
			<path class="st2" d="M353.7,358.3c-0.4,0-0.7-0.1-1-0.4l-6.8-6.2l-6.5,1.3c-0.7,0.2-1.5-0.3-1.8-1l-7.1-18l-6.6-2l-7.1-2.7
				l-6.9,0.9c-0.4,0-0.7,0-1-0.2l-7.3-4.6c-0.3-0.2-0.6-0.5-0.7-0.9l-7.3-25.8l-5.9-21.2l-5.8,20.9c0,0.1,0,0.2-0.1,0.2l-7.3,16
				c-0.1,0.3-0.3,0.5-0.5,0.6l-7.3,5.1c-0.6,0.4-1.4,0.4-2-0.2l-6.7-6.6l-6,1.9l-7,8.2l-7.3,11.6c-0.2,0.4-0.6,0.6-1,0.7
				c-0.4,0.1-0.9,0-1.2-0.3l-6.5-4.6l-6.5,3.7c-0.6,0.4-1.5,0.2-1.9-0.3l-5.8-6.6l-6.3,12.1c-0.3,0.5-0.7,0.8-1.3,0.8l-7.2,0.4
				l-7.3,1.2c-0.8,0.1-1.5-0.4-1.7-1.1l-6.5-23l-5.4,6.5l-7.3,10.6c-0.3,0.4-0.8,0.7-1.3,0.7c-0.5,0-1-0.3-1.3-0.8l-5.9-10.3
				l-6,12.3c-0.1,0.2-0.2,0.4-0.4,0.5l-7.3,6c-0.2,0.2-0.5,0.3-0.7,0.3l-7.3,1.1c-0.3,0-0.6,0-0.9-0.1l-6.3-3.1l-6.6,7.2
				c-0.4,0.4-1,0.6-1.6,0.4c-0.6-0.2-1-0.6-1.1-1.2l-6.2-36.7l-5.4,16.8c-0.2,0.6-0.7,1-1.3,1.1l-7,0.7l-7.1,3.5
				c-0.2,0.1-0.5,0.2-0.8,0.2l-6.5-0.3l-6.8,9.9c-0.1,0.1-0.1,0.2-0.2,0.2l-7.3,7.2c-0.2,0.2-0.4,0.3-0.7,0.4l-7.3,1.8
				c-0.6,0.1-1.1,0-1.5-0.5l-6.5-7.3l-6.3,2.9c-0.2,0.1-0.4,0.1-0.6,0.1l-7,0.3l-7,3.1l-7.2,4.7c-0.6,0.4-1.3,0.3-1.8-0.1l-7.3-5.7
				c-2.9-2.2-5.8-4.4-8.7-6.7c0.7-0.8,1.5-1.6,2.2-2.4c2.8,2.2,5.6,4.4,8.4,6.6l6.5,5l6.4-4.2c0.1,0,0.1-0.1,0.2-0.1l7.3-3.3
				c0.2-0.1,0.4-0.1,0.6-0.1l7-0.3l7.1-3.3c0.6-0.3,1.4-0.1,1.8,0.4l6.7,7.4l6-1.5l6.9-6.8l7.3-10.5c0.3-0.4,0.8-0.7,1.4-0.7
				l6.9,0.3l7-3.5c0.2-0.1,0.3-0.1,0.5-0.2l6.3-0.7l7-21.8c0.2-0.7,0.9-1.1,1.6-1.1c0.7,0.1,1.3,0.6,1.4,1.3l6.8,39.8l5.2-5.7
				c0.5-0.5,1.2-0.6,1.8-0.3l6.9,3.3l6.4-1l6.7-5.5l7.2-14.6c0.3-0.5,0.8-0.8,1.3-0.9c0.6-0.1,1.1,0.3,1.4,0.8l6.1,10.7l5.9-8.6
				c0,0,0.1-0.1,0.1-0.1l7.3-8.8c0.4-0.4,1-0.6,1.5-0.5c0.6,0.1,1,0.5,1.2,1.1l6.9,24.5l6-1c0.1,0,0.1,0,0.2,0l6.4-0.4l6.9-13.4
				c0.2-0.5,0.7-0.8,1.2-0.8c0.5-0.1,1,0.1,1.4,0.5l6.5,7.3l6.2-3.6c0.5-0.3,1.2-0.3,1.7,0.1l6,4.2l6.5-10.3c0-0.1,0.1-0.1,0.1-0.2
				l7.3-8.6c0.2-0.2,0.4-0.4,0.7-0.5l7.3-2.4c0.6-0.2,1.2,0,1.6,0.4l6.4,6.4l5.9-4.1l7.1-15.5l7.3-26.2c0.2-0.7,0.8-1.1,1.5-1.1
				c0,0,0,0,0,0c0.7,0,1.3,0.5,1.5,1.1l7.3,26.6l7.1,25.2l6.4,4l6.8-0.9c0.3,0,0.5,0,0.8,0.1l7.3,2.9l7.2,2.2c0.5,0.1,0.8,0.5,1,0.9
				l6.9,17.5l6-1.2c0.5-0.1,1,0,1.4,0.4l7.3,6.7c0.6,0.6,0.7,1.6,0.1,2.2C354.6,358.2,354.1,358.3,353.7,358.3z"/>
		</g>
	</g>
	<g>
		<g>
			<path class="st3" d="M352.2,348c-0.2-0.8,0.3-1.7,1.2-1.9l0,0c0.8-0.2,1.7,0.3,1.9,1.2l0,0c0.2,0.8-0.3,1.7-1.2,1.9l0,0
				c-0.1,0-0.2,0-0.3,0l0,0C353,349.2,352.4,348.8,352.2,348z M358.3,346.6c-0.2-0.8,0.3-1.7,1.2-1.9l0,0c0.8-0.2,1.7,0.3,1.9,1.2
				l0,0c0.2,0.8-0.3,1.7-1.2,1.9l0,0c-0.1,0-0.2,0-0.3,0l0,0C359.1,347.9,358.4,347.4,358.3,346.6z M364.1,344.7
				c-0.3-0.8,0-1.7,0.8-2.1l0,0c0.8-0.3,1.7,0,2.1,0.8l0,0c0.3,0.8,0,1.7-0.8,2l0,0c-0.2,0.1-0.4,0.1-0.6,0.1l0,0
				C364.9,345.6,364.4,345.2,364.1,344.7z M369.8,342.1c-0.4-0.8-0.1-1.7,0.7-2.1l0,0c0.8-0.4,1.7-0.1,2.1,0.7l0,0
				c0.4,0.8,0.1,1.7-0.7,2.1l0,0c-0.2,0.1-0.5,0.2-0.7,0.2l0,0C370.6,343,370,342.6,369.8,342.1z M419.5,340.4
				c-0.9,0-1.6-0.7-1.5-1.6l0,0c0-0.9,0.7-1.5,1.6-1.5l0,0c0.9,0,1.5,0.7,1.5,1.6l0,0C421,339.8,420.4,340.4,419.5,340.4
				L419.5,340.4C419.5,340.4,419.5,340.4,419.5,340.4z M413.3,340.4c-0.9,0-1.6-0.7-1.5-1.6l0,0c0-0.9,0.7-1.5,1.6-1.5l0,0
				c0.9,0,1.5,0.7,1.5,1.6l0,0C414.8,339.7,414.2,340.4,413.3,340.4L413.3,340.4L413.3,340.4z M375.3,339.3c-0.3-0.8,0.1-1.7,0.9-2
				l0,0c0.8-0.3,1.7,0.1,2,0.9l0,0c0.3,0.8-0.1,1.7-0.9,2l0,0c-0.2,0.1-0.4,0.1-0.5,0.1l0,0C376.2,340.3,375.6,339.9,375.3,339.3z
				 M406.9,339.5c-0.9-0.1-1.4-0.9-1.3-1.8l0,0c0.1-0.8,0.9-1.4,1.8-1.3l0,0c0.8,0.1,1.4,0.9,1.3,1.8l0,0c-0.1,0.8-0.8,1.3-1.5,1.3
				l0,0C407.1,339.5,407,339.5,406.9,339.5z M424,337.7c-0.2-0.8,0.2-1.7,1.1-1.9l0,0c0.8-0.2,1.7,0.2,1.9,1.1l0,0
				c0.2,0.8-0.3,1.7-1.1,1.9l0,0c-0.1,0-0.3,0-0.4,0l0,0C424.8,338.8,424.2,338.4,424,337.7z M400.7,338.3c-0.8-0.2-1.4-1-1.2-1.8
				l0,0c0.2-0.8,1-1.4,1.8-1.2l0,0c0.8,0.2,1.4,1,1.2,1.8l0,0c-0.1,0.7-0.8,1.2-1.5,1.2l0,0C401,338.3,400.8,338.3,400.7,338.3z
				 M381.2,337.2c-0.3-0.8,0.1-1.7,0.9-2l0,0c0.8-0.3,1.7,0.1,2,0.9l0,0c0.3,0.8-0.1,1.7-0.9,2l0,0c-0.2,0.1-0.3,0.1-0.5,0.1l0,0
				C382,338.2,381.4,337.8,381.2,337.2z M394.8,337.4c-0.9-0.1-1.5-0.8-1.4-1.7l0,0c0.1-0.9,0.8-1.5,1.7-1.4l0,0
				c0.9,0.1,1.5,0.8,1.4,1.7l0,0c-0.1,0.8-0.7,1.4-1.6,1.4l0,0C394.9,337.4,394.8,337.4,394.8,337.4z M387.2,335.9
				c-0.1-0.8,0.5-1.6,1.3-1.8l0,0c0.8-0.1,1.6,0.5,1.8,1.3l0,0c0.1,0.9-0.5,1.6-1.3,1.8l0,0c-0.1,0-0.1,0-0.2,0l0,0
				C388,337.3,387.3,336.7,387.2,335.9z M429.7,335.2c-0.4-0.7-0.2-1.7,0.5-2.1l0,0c0.7-0.4,1.7-0.2,2.1,0.5l0,0
				c0.4,0.7,0.2,1.7-0.5,2.1l0,0c-0.3,0.1-0.5,0.2-0.8,0.2l0,0C430.5,336,430,335.7,429.7,335.2z M434.9,332
				c-0.5-0.7-0.4-1.6,0.2-2.2l0,0c0.7-0.5,1.6-0.4,2.2,0.2l0,0c0.5,0.7,0.4,1.6-0.2,2.2l0,0c-0.3,0.2-0.6,0.4-1,0.4l0,0
				C435.7,332.6,435.2,332.4,434.9,332z M439.7,328c-0.5-0.7-0.4-1.6,0.2-2.2l0,0c0.7-0.5,1.6-0.4,2.2,0.2l0,0
				c0.5,0.7,0.4,1.6-0.2,2.2l0,0c-0.3,0.2-0.6,0.3-1,0.3l0,0C440.5,328.6,440,328.4,439.7,328z M444.4,323.9
				c-0.6-0.6-0.5-1.6,0.1-2.2l0,0c0.6-0.6,1.6-0.6,2.2,0.1l0,0c0.6,0.6,0.5,1.6-0.1,2.2l0,0c-0.3,0.3-0.7,0.4-1.1,0.4l0,0
				C445.1,324.4,444.7,324.3,444.4,323.9z M448.9,319.7c-0.6-0.6-0.5-1.6,0.1-2.2l0,0c0.6-0.6,1.6-0.5,2.2,0.1l0,0
				c0.6,0.6,0.5,1.6-0.1,2.2l0,0c-0.3,0.3-0.7,0.4-1,0.4l0,0C449.6,320.2,449.2,320,448.9,319.7z M453.5,315.5
				c-0.6-0.6-0.5-1.6,0.1-2.2l0,0c0.6-0.6,1.6-0.5,2.2,0.1l0,0c0.6,0.6,0.5,1.6-0.1,2.2l0,0c-0.3,0.3-0.7,0.4-1.1,0.4l0,0
				C454.2,316,453.8,315.8,453.5,315.5z M458.2,311.4c-0.5-0.7-0.4-1.6,0.2-2.2l0,0c0.7-0.5,1.6-0.4,2.2,0.2l0,0
				c0.5,0.7,0.4,1.6-0.2,2.2l0,0c-0.3,0.2-0.6,0.3-1,0.3l0,0C458.9,312,458.5,311.8,458.2,311.4z M462.9,307.4
				c-0.5-0.7-0.3-1.7,0.4-2.2l0,0c0.7-0.5,1.7-0.3,2.2,0.4l0,0c0.5,0.7,0.3,1.7-0.4,2.2l0,0c-0.3,0.2-0.6,0.3-0.9,0.3l0,0
				C463.7,308.1,463.2,307.9,462.9,307.4z M468.1,303.9c-0.5-0.7-0.3-1.7,0.4-2.2l0,0c0.7-0.5,1.7-0.3,2.2,0.4l0,0
				c0.5,0.7,0.3,1.7-0.4,2.2l0,0c-0.3,0.2-0.6,0.3-0.9,0.3l0,0C468.8,304.6,468.4,304.3,468.1,303.9z M473.3,300.6
				c-0.4-0.7-0.2-1.7,0.6-2.1l0,0c0.7-0.4,1.7-0.2,2.1,0.6l0,0c0.4,0.7,0.2,1.7-0.6,2.1l0,0c-0.2,0.1-0.5,0.2-0.8,0.2l0,0
				C474.1,301.3,473.6,301.1,473.3,300.6z M478.7,297.5c-0.4-0.8-0.1-1.7,0.7-2.1l0,0c0.8-0.4,1.7-0.1,2.1,0.7l0,0
				c0.4,0.8,0.1,1.7-0.7,2.1l0,0c-0.2,0.1-0.5,0.2-0.7,0.2l0,0C479.5,298.4,479,298,478.7,297.5z"/>
			<path class="st3" d="M38.7,351.7l-7.5,0l-7.6-0.9c-3-0.8-6-1.6-9-2.4c0.3-1,0.6-2,0.9-3c2.9,0.8,5.8,1.6,8.8,2.4l7.1,0.8l7.2,0
				l7.3-0.2l7.3-0.4l7.2-0.9l7.1-1.3l7.1-2.3l7.1-3.6l7.3-4.5l7.7-4.2l7.6-2.3l7.8,0.5l7.7,2.9l7.3,3.5l7.1,2.6l6.9,0.8l6.9-1.3
				l7.2-3l7.6-3.3l7.5-1.7l7.8,0.4l7.3,1.7l7.3,1.8l7.1,1l7.1-0.1l7.1-1.1l7.1-2.1l14.6-6l7.3-3.2l7.2-3.6l7.2-4.3l7.5-4.6l7.7-3.5
				l7.6-1.5l8,1.3l7.6,3.3l7.4,5.1l7.3,6.2l7.4,6.7l7.3,6.3l7.1,5.2l7.1,4.1l7,2.4l7.1,0.6l-0.3,3.1l-7.7-0.7l-7.6-2.6l-7.5-4.3
				l-7.3-5.4l-7.4-6.4l-7.4-6.7l-7.2-6.1l-7.1-4.9l-7-3l-6.9-1.1l-6.9,1.3l-7.1,3.3l-7.3,4.5l-7.4,4.3l-7.4,3.6l-7.4,3.2l-14.8,6.1
				l-7.5,2.2l-7.6,1.1l-7.4,0.1l-7.6-1l-7.3-1.8l-7.2-1.6l-7-0.3l-7,1.6l-7.2,3.2l-7.7,3.2l-7.6,1.5l-7.9-1l-7.5-2.8l-7.3-3.5
				l-7.1-2.7l-6.8-0.4l-6.9,2.1l-7.2,3.9l-7.4,4.6l-7.5,3.8l-7.5,2.4l-7.3,1.4l-7.4,0.9l-7.4,0.4L38.7,351.7z"/>
		</g>
	</g>
</g>
<g id="Hexagone">
	<g>
		<g>
			<g>
				<path class="st2" d="M245.5,0L0,141.7v283.5l245.5,141.7L491,425.2V141.7L245.5,0z M474.2,415.5l-228.7,132l-228.7-132V151.4
					l228.7-132l228.7,132V415.5z"/>
			</g>
		</g>
	</g>
</g>
<g id="Text">
	<g>
		<g>
			<path class="st2" d="M230.3,166.8v-8h7.5c5.3,0,10.9-1.4,10.9-6.3c0-3-2.4-6.9-10.7-6.9c-4.6,0-10.9,1.6-10.9,6.4h-9.8
				c0-11.2,11.2-15.3,20.8-15.3c9.8,0,20.4,4.8,20.5,15.9c0,4.1-2.7,8.9-7.2,10.3c5,1.6,8.5,6.6,8.5,10.9c0,12.7-12,16.5-22,16.5
				c-9.9,0-21.2-4.2-21.3-16h9.9c0,5.4,7.2,7.2,11.5,7.2c5,0,11.6-2.1,11.6-7.7c0-3.1-1.7-7-11.1-7H230.3z"/>
		</g>
	</g>
	<g>
		<g>
			<path class="st1" d="M252.7,519.4c0.4,0,0.8,0.1,1.3,0.3l-0.6-1.1l1.4-0.8l4.6,8c0.6,1.1,1,2.1,1,2.9c0.1,1.5-0.7,2.8-2.4,3.8
				c-0.9,0.5-1.9,0.8-2.8,0.7c-0.9-0.1-1.6-0.5-2.2-1.4l1.5-0.9c0.3,0.4,0.6,0.6,1,0.7c0.5,0.1,1.1,0,1.9-0.4
				c1.1-0.7,1.6-1.5,1.5-2.5c-0.1-0.6-0.5-1.5-1.2-2.7c0,0.6-0.2,1.2-0.5,1.6c-0.3,0.5-0.8,0.9-1.5,1.3c-1,0.6-2,0.7-3.1,0.4
				c-1.1-0.3-2.1-1.2-3-2.7c-0.9-1.5-1.2-2.8-0.9-4.1c0.2-1.2,0.9-2.2,1.9-2.7C251.3,519.5,252,519.3,252.7,519.4z M253.8,520.9
				c-0.8-0.3-1.5-0.2-2.2,0.2c-1,0.6-1.5,1.5-1.3,2.7c0.1,0.6,0.4,1.4,0.9,2.2c0.6,1,1.2,1.6,1.9,1.9s1.4,0.2,2.1-0.2
				c1.1-0.6,1.5-1.5,1.4-2.7c-0.1-0.7-0.3-1.4-0.7-2.1C255.2,521.8,254.5,521.1,253.8,520.9z"/>
			<path class="st1" d="M255.1,513.2l1.5-0.9l1,1.7l-1.5,0.9L255.1,513.2z M257,516.5l1.5-0.9l5.1,8.8l-1.5,0.9L257,516.5z"/>
			<path class="st1" d="M259.6,511.7l1.5-0.9l1.4,2.5l1.4-0.8l0.7,1.2l-1.4,0.8l3.3,5.8c0.2,0.3,0.4,0.5,0.7,0.4
				c0.2,0,0.4-0.1,0.6-0.2c0.1,0,0.1-0.1,0.2-0.1c0.1-0.1,0.2-0.1,0.3-0.2l0.7,1.2c-0.1,0.1-0.3,0.3-0.5,0.4
				c-0.2,0.1-0.4,0.3-0.6,0.4c-0.7,0.4-1.3,0.5-1.7,0.3c-0.5-0.2-0.8-0.6-1.2-1.2l-3.4-5.8l-1.2,0.7l-0.7-1.2l1.2-0.7L259.6,511.7z"
				/>
			<path class="st1" d="M263.5,508.3l1.5-0.9l2.6,4.5c0.1-0.6,0.2-1.1,0.4-1.5c0.3-0.6,0.8-1.1,1.5-1.5c1.3-0.7,2.4-0.8,3.4-0.2
				c0.5,0.3,1,1,1.5,1.8l3.3,5.7l-1.5,0.9l-3.2-5.6c-0.4-0.6-0.7-1.1-1.1-1.3c-0.5-0.3-1.2-0.3-1.9,0.1c-0.6,0.4-1,0.9-1.3,1.6
				c-0.3,0.7,0,1.7,0.6,2.8l2.7,4.7l-1.5,0.9L263.5,508.3z"/>
			<path class="st1" d="M276.2,505.3l3.4,5.8c0.3,0.4,0.5,0.8,0.8,1c0.6,0.4,1.2,0.4,1.9-0.1c1-0.6,1.5-1.5,1.3-2.6
				c-0.1-0.6-0.4-1.3-0.9-2.2l-2.5-4.3l1.5-0.9l5.1,8.8l-1.4,0.8l-0.7-1.3c0,0.4-0.1,0.9-0.2,1.3c-0.3,0.8-0.9,1.4-1.7,1.9
				c-1.3,0.7-2.4,0.8-3.3,0.2c-0.5-0.3-1-0.8-1.4-1.6l-3.5-6L276.2,505.3z"/>
			<path class="st1" d="M282.1,497.5l1.4-0.8l2.5,4.4c0.1-0.6,0.3-1.2,0.6-1.6s0.7-0.9,1.3-1.2c1.1-0.6,2.2-0.8,3.3-0.4
				c1.1,0.4,2.1,1.3,2.9,2.7c0.8,1.4,1.1,2.7,1,4.1c-0.1,1.3-0.8,2.3-2,3c-0.7,0.4-1.3,0.5-2,0.5c-0.4,0-0.9-0.2-1.4-0.4l0.7,1.1
				l-1.4,0.8L282.1,497.5z M293.6,504.4c0-0.9-0.3-1.8-0.9-2.9c-0.5-0.9-1.2-1.6-1.9-2c-0.7-0.4-1.5-0.3-2.3,0.1
				c-0.7,0.4-1.1,1-1.3,1.8c-0.2,0.8,0,1.8,0.7,2.9c0.5,0.8,1,1.4,1.5,1.8c0.9,0.7,2,0.8,3,0.2C293.1,505.9,293.5,505.3,293.6,504.4
				z"/>
			<path class="st1" d="M297.9,502.2l1.7-1l1,1.8l-1.7,1L297.9,502.2z"/>
			<path class="st1" d="M304.2,489.8c0.9,0.1,1.8,0.7,2.6,1.8l-1.4,0.8c-0.4-0.5-0.9-0.8-1.4-1c-0.5-0.2-1.1-0.1-1.8,0.3
				c-0.9,0.5-1.4,1.4-1.2,2.6c0.1,0.7,0.4,1.6,0.9,2.4c0.5,0.9,1.1,1.5,1.8,1.9c0.7,0.4,1.5,0.4,2.3-0.1c0.6-0.4,1-0.8,1.1-1.4
				c0.1-0.6,0.1-1.2-0.1-2l1.4-0.8c0.5,1.3,0.6,2.4,0.2,3.3c-0.3,0.9-1,1.7-2.1,2.3c-1.2,0.7-2.3,0.8-3.5,0.3
				c-1.2-0.4-2.1-1.3-2.8-2.6c-0.9-1.5-1.2-3-1-4.3c0.3-1.3,1-2.3,2.1-2.9C302.4,489.9,303.3,489.6,304.2,489.8z"/>
			<path class="st1" d="M313.5,485c1.2,0.3,2.3,1.2,3.1,2.7c0.8,1.4,1.2,2.8,1,4.1c-0.2,1.3-1,2.4-2.4,3.2c-1.2,0.7-2.4,0.8-3.6,0.4
				c-1.2-0.4-2.2-1.3-3-2.7c-0.9-1.5-1.2-2.9-0.9-4.2c0.2-1.3,1-2.3,2.3-3.1C311.1,484.8,312.3,484.7,313.5,485z M316,491.4
				c-0.1-1-0.4-1.9-0.9-2.8c-0.5-0.8-1-1.4-1.6-1.8c-0.9-0.6-1.8-0.6-2.9,0c-0.9,0.5-1.4,1.2-1.4,2.2c0,0.9,0.3,1.9,0.8,2.9
				c0.5,0.9,1.2,1.6,2,2c0.8,0.4,1.6,0.3,2.5-0.2C315.6,493.1,316,492.3,316,491.4z"/>
			<path class="st1" d="M315.9,482.4l1.5-0.8l0.7,1.3c0.1-0.6,0.2-1.1,0.4-1.5c0.3-0.6,0.8-1.1,1.4-1.5c0.7-0.4,1.4-0.6,2-0.5
				c0.4,0.1,0.7,0.2,1.2,0.5c0.1-0.7,0.2-1.2,0.6-1.7c0.3-0.5,0.7-0.9,1.3-1.2c1.2-0.7,2.2-0.7,3.2-0.1c0.5,0.3,1,0.9,1.4,1.7
				l3.4,5.9l-1.5,0.9l-3.5-6.1c-0.3-0.6-0.7-0.9-1.1-1c-0.4,0-0.8,0-1.3,0.3c-0.6,0.3-1,0.8-1.2,1.5c-0.2,0.6,0,1.4,0.5,2.3l3,5.1
				l-1.5,0.9l-3.3-5.7c-0.3-0.6-0.7-1-1-1.2c-0.5-0.3-1-0.2-1.6,0.1c-0.6,0.3-0.9,0.8-1.2,1.5c-0.2,0.7,0,1.6,0.7,2.7l2.7,4.7
				l-1.5,0.9L315.9,482.4z"/>
			<path class="st1" d="M330.8,469.4l1.3-0.7l3.1,14.3l-1.3,0.7L330.8,469.4z"/>
			<path class="st1" d="M334.7,471.6l1.4-0.8l0.9,1.5c-0.1-0.4,0-0.9,0.2-1.6c0.2-0.7,0.6-1.2,1.2-1.5c0,0,0.1,0,0.1-0.1
				c0.1,0,0.2-0.1,0.4-0.2l0.9,1.6c-0.1,0-0.2,0.1-0.3,0.1s-0.2,0.1-0.2,0.1c-0.7,0.4-1.2,1-1.3,1.7c-0.1,0.7,0,1.4,0.4,2l2.9,5.1
				l-1.5,0.9L334.7,471.6z"/>
			<path class="st1" d="M340.8,465.9l-1.5,0.9l-1-1.7l1.5-0.9L340.8,465.9z M345.2,480.2c0.7-0.4,1-0.7,1.1-0.9c0.1-0.2,0-0.5-0.3-1
				l-5.7-9.9l1.5-0.9l5.8,10.1c0.4,0.6,0.5,1.2,0.5,1.6c0,0.7-0.5,1.4-1.5,1.9c-0.1,0-0.1,0.1-0.2,0.1c-0.1,0-0.2,0.1-0.4,0.2
				L345.2,480.2z"/>
			<path class="st1" d="M349,463.6c0.4,0,0.8,0.1,1.4,0.3l-2.6-4.4l1.4-0.8l7,12.1l-1.3,0.8l-0.7-1.2c0,0.7-0.2,1.4-0.5,1.9
				c-0.3,0.5-0.8,0.9-1.4,1.3c-1,0.6-2.1,0.6-3.3,0.2c-1.2-0.4-2.2-1.3-3-2.7c-0.7-1.3-1.1-2.6-0.9-3.9c0.1-1.3,0.8-2.3,2-3
				C347.8,463.8,348.4,463.6,349,463.6z M349.5,472.2c0.8,0.4,1.6,0.4,2.5-0.2c0.7-0.4,1.1-1,1.2-1.9c0.1-0.8-0.2-1.8-0.8-2.9
				c-0.6-1.1-1.3-1.8-2.1-2.1c-0.8-0.3-1.5-0.2-2.1,0.2c-0.7,0.4-1.2,1.1-1.3,1.9c-0.1,0.8,0.1,1.8,0.8,2.9
				C348.1,471.1,348.8,471.8,349.5,472.2z"/>
			<path class="st1" d="M354.1,460.4l6.5,5.8l-1.7-8.6l1.6-0.9l1.8,10.7l-1.6,0.9l-8.3-6.9L354.1,460.4z"/>
			<path class="st1" d="M367.4,453c0.8,0,1.4,0.1,2,0.4c0.6,0.3,1,0.7,1.5,1.2c0.3,0.4,0.7,1,1.3,1.9l-6.5,3.7
				c0.5,0.9,1.2,1.5,1.9,1.8c0.7,0.3,1.5,0.2,2.3-0.2c0.8-0.4,1.2-1.1,1.4-1.8c0.1-0.4,0.1-0.9,0-1.4l1.5-0.8
				c0.1,0.3,0.2,0.8,0.2,1.3s0,1-0.2,1.4c-0.2,0.7-0.6,1.3-1.2,1.9c-0.3,0.3-0.7,0.6-1.1,0.8c-1.1,0.6-2.3,0.8-3.5,0.4
				c-1.2-0.4-2.2-1.3-3.1-2.7c-0.8-1.4-1.1-2.8-0.8-4.1s1-2.3,2.2-3.1C366,453.2,366.7,453,367.4,453z M370,456.1
				c-0.4-0.6-0.9-1-1.3-1.3c-0.8-0.5-1.7-0.4-2.6,0.1c-0.7,0.4-1.1,1-1.3,1.7c-0.2,0.8-0.1,1.5,0.3,2.3L370,456.1z"/>
			<path class="st1" d="M371.2,450.5l1.4-0.8l0.9,1.5c-0.1-0.4,0-0.9,0.2-1.6c0.2-0.7,0.6-1.2,1.2-1.5c0,0,0.1,0,0.1-0.1
				c0.1,0,0.2-0.1,0.4-0.2l0.9,1.6c-0.1,0-0.2,0.1-0.3,0.1c-0.1,0-0.2,0.1-0.2,0.1c-0.7,0.4-1.2,1-1.3,1.7c-0.1,0.7,0,1.4,0.4,2
				l2.9,5.1l-1.5,0.9L371.2,450.5z"/>
			<path class="st1" d="M381.2,452.8c0.3,0.5,0.7,0.8,1,0.9c0.6,0.3,1.4,0.1,2.4-0.4c0.5-0.3,1-0.7,1.2-1.2c0.3-0.5,0.3-1,0-1.5
				c-0.2-0.4-0.6-0.6-1-0.6c-0.3,0-0.8,0.1-1.5,0.3l-1.3,0.4c-0.9,0.2-1.5,0.4-2,0.3c-0.9,0-1.5-0.4-1.9-1.1
				c-0.5-0.8-0.6-1.7-0.3-2.5s1-1.6,2-2.2c1.3-0.8,2.5-0.9,3.5-0.5c0.7,0.3,1.1,0.7,1.5,1.3l-1.4,0.8c-0.2-0.3-0.5-0.6-0.9-0.7
				c-0.6-0.2-1.3,0-2.1,0.4c-0.6,0.3-0.9,0.7-1.1,1.1c-0.2,0.4-0.1,0.7,0.1,1.1c0.2,0.4,0.6,0.6,1.1,0.6c0.3,0,0.7-0.1,1.2-0.2
				l1.1-0.3c1.2-0.4,2.1-0.5,2.6-0.5c0.8,0,1.4,0.5,1.9,1.3c0.5,0.8,0.5,1.6,0.3,2.5c-0.3,0.9-1,1.7-2.2,2.4c-1.3,0.8-2.4,1-3.3,0.7
				c-0.9-0.3-1.6-0.8-2.2-1.7L381.2,452.8z"/>
			<path class="st1" d="M390.8,439.5c0.8,0,1.4,0.1,2,0.4c0.6,0.3,1,0.7,1.5,1.2c0.3,0.4,0.7,1,1.3,1.9l-6.5,3.7
				c0.5,0.9,1.2,1.5,1.9,1.8c0.7,0.3,1.5,0.2,2.3-0.2c0.8-0.4,1.2-1.1,1.4-1.8c0.1-0.4,0.1-0.9,0-1.4l1.5-0.8
				c0.1,0.3,0.2,0.8,0.2,1.3s0,1-0.2,1.4c-0.2,0.7-0.6,1.3-1.2,1.9c-0.3,0.3-0.7,0.6-1.1,0.8c-1.1,0.6-2.3,0.8-3.5,0.4
				s-2.2-1.3-3.1-2.7c-0.8-1.4-1.1-2.8-0.8-4.1c0.3-1.3,1-2.3,2.2-3.1C389.4,439.7,390.1,439.5,390.8,439.5z M393.4,442.6
				c-0.4-0.6-0.9-1-1.3-1.3c-0.8-0.5-1.7-0.4-2.6,0.1c-0.7,0.4-1.1,1-1.3,1.7c-0.2,0.8-0.1,1.5,0.3,2.3L393.4,442.6z"/>
			<path class="st1" d="M395.4,432.1l1.3-0.7l3.1,14.3l-1.3,0.7L395.4,432.1z"/>
			<path class="st1" d="M399.3,434.3l1.4-0.8l0.9,1.5c-0.1-0.4,0-0.9,0.2-1.6c0.2-0.7,0.6-1.2,1.2-1.5c0,0,0.1,0,0.1-0.1
				s0.2-0.1,0.4-0.2l0.9,1.6c-0.1,0-0.2,0.1-0.3,0.1c-0.1,0-0.2,0.1-0.2,0.1c-0.7,0.4-1.2,1-1.3,1.7c-0.1,0.7,0,1.4,0.4,2l2.9,5.1
				l-1.5,0.9L399.3,434.3z"/>
			<path class="st1" d="M405.4,428.6l-1.5,0.9l-1-1.7l1.5-0.9L405.4,428.6z M409.8,442.9c0.7-0.4,1-0.7,1.1-0.9c0.1-0.2,0-0.5-0.3-1
				l-5.7-9.9l1.5-0.9l5.8,10.1c0.4,0.6,0.5,1.2,0.5,1.6c0,0.7-0.5,1.4-1.5,1.9c-0.1,0-0.1,0.1-0.2,0.1c-0.1,0-0.2,0.1-0.4,0.2
				L409.8,442.9z"/>
			<path class="st1" d="M413.6,426.4c0.4,0,0.8,0.1,1.4,0.3l-2.6-4.5l1.4-0.8l7,12.1l-1.3,0.8l-0.7-1.2c0,0.7-0.2,1.4-0.5,1.9
				c-0.3,0.5-0.8,0.9-1.4,1.3c-1,0.6-2.1,0.6-3.3,0.2s-2.2-1.3-3-2.7c-0.7-1.3-1.1-2.6-0.9-3.9c0.1-1.3,0.8-2.3,2-3
				C412.4,426.5,413,426.3,413.6,426.4z M414.1,434.9c0.8,0.4,1.6,0.4,2.5-0.2c0.7-0.4,1.1-1,1.2-1.9c0.1-0.8-0.2-1.8-0.8-2.9
				c-0.6-1.1-1.3-1.8-2.1-2.1c-0.8-0.3-1.5-0.2-2.1,0.2c-0.7,0.4-1.2,1.1-1.3,1.9c-0.1,0.8,0.1,1.8,0.8,2.9
				C412.7,433.8,413.3,434.5,414.1,434.9z"/>
			<path class="st1" d="M422.8,431.3c-1.1-0.4-1.9-1.2-2.6-2.3l1.5-0.9c0.5,0.7,1,1.2,1.4,1.4c0.7,0.4,1.6,0.3,2.6-0.3
				c0.8-0.4,1.3-1,1.5-1.7c0.2-0.7,0.2-1.4-0.2-2c-0.5-0.8-1-1.2-1.7-1.3c-0.7,0-1.5,0.2-2.3,0.7c-0.1,0.1-0.2,0.1-0.3,0.2
				c-0.1,0.1-0.2,0.1-0.3,0.2l-0.8-1.3c0.2-0.1,0.3-0.1,0.4-0.2c0.1-0.1,0.2-0.1,0.3-0.2c0.6-0.3,1-0.7,1.2-1.1
				c0.4-0.7,0.4-1.4,0-2.2c-0.3-0.6-0.8-0.9-1.4-1c-0.6-0.1-1.2,0-1.7,0.4c-1,0.6-1.5,1.3-1.5,2.2c0,0.5,0.2,1.1,0.5,1.8l-1.5,0.8
				c-0.5-0.9-0.8-1.7-0.8-2.5c0-1.4,0.7-2.6,2.2-3.5c1.2-0.7,2.3-1,3.3-0.8c1,0.2,1.7,0.7,2.3,1.8c0.4,0.7,0.6,1.4,0.4,2.1
				c-0.1,0.4-0.3,0.8-0.6,1.2c0.7-0.2,1.4-0.1,2,0.1c0.6,0.3,1.1,0.8,1.5,1.5c0.6,1.1,0.8,2.3,0.5,3.4c-0.3,1.1-1.2,2.1-2.5,2.9
				C425.1,431.5,423.9,431.7,422.8,431.3z"/>
			<path class="st1" d="M426.5,418.6l1.9-1.1l3.8,1.9l0.3-4.3l1.8-1l-0.5,6l5.7,2.7l-1.9,1.1l-4.1-2l-0.2,4.5l-1.9,1.1l0.5-6.3
				L426.5,418.6z"/>
			<path class="st1" d="M436.6,413.4l-0.7-1.1c1-0.7,1.7-1.3,1.9-1.8c0.3-0.5,0.3-1.2-0.1-2.3l1.2-0.7l6.8,11.7l-1.6,0.9l-4.8-8.3
				L436.6,413.4z"/>
			<path class="st1" d="M450,415.6c-1.1-0.4-1.9-1.2-2.6-2.2l1.5-0.9c0.5,0.7,1,1.2,1.4,1.4c0.7,0.4,1.6,0.3,2.6-0.3
				c0.8-0.4,1.3-1,1.5-1.7c0.2-0.7,0.2-1.4-0.2-2c-0.5-0.8-1-1.2-1.7-1.3c-0.7,0-1.5,0.2-2.3,0.7c-0.1,0.1-0.2,0.1-0.3,0.2
				c-0.1,0.1-0.2,0.1-0.3,0.2l-0.8-1.3c0.2-0.1,0.3-0.1,0.4-0.2s0.2-0.1,0.3-0.2c0.6-0.3,1-0.7,1.2-1.1c0.4-0.7,0.4-1.4,0-2.2
				c-0.3-0.6-0.8-0.9-1.4-1c-0.6-0.1-1.2,0-1.7,0.4c-1,0.6-1.5,1.3-1.5,2.2c0,0.5,0.2,1.1,0.5,1.8l-1.5,0.8
				c-0.5-0.9-0.8-1.7-0.8-2.5c0-1.4,0.7-2.6,2.2-3.5c1.2-0.7,2.3-1,3.3-0.8c1,0.2,1.7,0.7,2.3,1.8c0.4,0.7,0.6,1.4,0.4,2.1
				c-0.1,0.4-0.3,0.8-0.6,1.2c0.7-0.2,1.4-0.1,2,0.1c0.6,0.3,1.1,0.8,1.5,1.5c0.6,1.1,0.8,2.3,0.5,3.4c-0.3,1.1-1.2,2.1-2.5,2.9
				C452.3,415.8,451.1,416,450,415.6z"/>
		</g>
	</g>
	<g>
		<g>
			<path class="st1" d="M132.1,152.8l0.7,4.2c2.8-4.5,6.6-5.2,10.4-5.2c3.8,0,7.4,1.5,9.5,3.5l-4.1,7.9c-1.9-1.6-3.6-2.4-6.6-2.4
				c-4.8,0-9.2,2.5-9.2,9.3v19.4h-9.1v-36.7H132.1z"/>
			<path class="st1" d="M164.9,152.7v44.7c0,9.1-3.9,15-12.2,15c-2.7,0-5.5-0.7-8.1-2.5l3.3-7.1c1.6,0.7,3.1,1.1,4.4,1
				c3-0.1,3.6-2.5,3.6-6.5v-44.7H164.9z M155.1,142.4c0,7.1,10.7,7.1,10.7,0S155.1,135.3,155.1,142.4z"/>
			<path class="st1" d="M210.8,137.5v52.1h-8.5l-0.6-5.1c-2.8,4.4-7.4,5.9-11.8,5.9c-10.8,0-18.9-7.2-18.9-19.2
				c0-12.7,8-19.2,18.7-19.2c3.9,0,9.9,2.1,12.1,5.9v-20.3H210.8z M180.1,171.1c0,6.4,4.6,10.8,10.4,10.8c5.7,0,10.7-4.2,10.7-10.8
				c0-6.4-4.9-10.7-10.7-10.7C184.7,160.4,180.1,164.5,180.1,171.1z"/>
			<path class="st1" d="M290.8,152.8h10.9v0.3l-12.1,17.8l12.8,18.4v0.2h-10.9l-8-12.3l-8,12.3h-10.9v-0.2l12.8-18.4l-12.1-17.8
				v-0.3h10.9l7.2,12.4L290.8,152.8z"/>
			<path class="st1" d="M304.7,181.2h7.8v-34.9h-8.1v-8.9h17.9v43.8h7.2v8.3h-24.8V181.2z"/>
			<path class="st1" d="M347.7,166.8v-8h7.5c5.3,0,10.9-1.4,10.9-6.3c0-3-2.4-6.9-10.7-6.9c-4.6,0-10.9,1.6-10.9,6.4h-9.8
				c0-11.2,11.2-15.3,20.8-15.3c9.8,0,20.4,4.8,20.5,15.9c0,4.1-2.7,8.9-7.2,10.3c5,1.6,8.5,6.6,8.5,10.9c0,12.7-12,16.5-22,16.5
				c-9.9,0-21.2-4.2-21.3-16h9.9c0,5.4,7.2,7.2,11.5,7.2c5,0,11.6-2.1,11.6-7.7c0-3.1-1.7-7-11.1-7H347.7z"/>
		</g>
	</g>
</g>
</svg>
