<?xml version="1.0" encoding="utf-8"?>
<!-- Generator: Adobe Illustrator 19.1.1, SVG Export Plug-In . SVG Version: 6.00 Build 0)  -->
<svg version="1.1" xmlns="http://www.w3.org/2000/svg" xmlns:xlink="http://www.w3.org/1999/xlink" x="0px" y="0px"
	 viewBox="0 0 491 566.9" style="enable-background:new 0 0 491 566.9;" xml:space="preserve">
<style type="text/css">
	.st0{fill:#FEFBD9;}
	.st1{fill:#BBB032;}
	.st2{fill:#BB334A;}
	.st3{fill:#216C36;}
	.st4{font-family:'NexaBold';}
	.st5{font-size:74.4768px;}
	.st6{font-family:'Helvetica';}
	.st7{font-size:19.4519px;}
</style>
<g id="Prisme">
</g>
<g id="Calque_6">
</g>
<g id="Background">
	<polygon class="st0" points="245.5,547.6 16.8,415.5 16.8,151.4 245.5,19.4 474.2,151.4 474.2,415.5 	"/>
</g>
<g id="Calque_5">
	<path class="st1" d="M359.3,427.4c-0.2-0.8,0.4-1.7,1.2-1.8l0,0c0.8-0.2,1.7,0.4,1.8,1.2l0,0c0.2,0.8-0.4,1.7-1.2,1.8l0,0
		c-0.1,0-0.2,0-0.3,0l0,0C360.1,428.7,359.5,428.2,359.3,427.4z M361.3,424.2c-0.8-0.1-1.5-0.8-1.4-1.6l0,0
		c-0.8,0.1-1.6-0.4-1.8-1.2l0,0c-0.2-0.8,0.4-1.7,1.2-1.8l0,0c0.8-0.2,1.7,0.4,1.8,1.2l0,0c0,0.1,0,0.2,0,0.4l0,0c0.1,0,0.2,0,0.3,0
		l0,0c0.8,0.1,1.5,0.8,1.4,1.7l0,0c-0.1,0.8-0.7,1.4-1.5,1.4l0,0C361.4,424.2,361.4,424.2,361.3,424.2z M361.8,418
		c-0.9-0.1-1.5-0.8-1.4-1.7l0,0c0.1-0.8,0.8-1.5,1.7-1.4l0,0c0.8,0.1,1.5,0.8,1.4,1.7l0,0c-0.1,0.8-0.7,1.4-1.5,1.4l0,0
		C361.9,418,361.9,418,361.8,418z M357,415.3c-0.2-0.8,0.4-1.7,1.2-1.8l0,0c0.8-0.2,1.7,0.4,1.8,1.2l0,0c0.2,0.8-0.4,1.7-1.2,1.8
		l0,0c-0.1,0-0.2,0-0.3,0l0,0C357.8,416.5,357.1,416,357,415.3z M362.3,411.8c-0.9-0.1-1.5-0.8-1.4-1.7l0,0c0.1-0.9,0.8-1.5,1.7-1.4
		l0,0c0.8,0.1,1.5,0.8,1.4,1.7l0,0c-0.1,0.8-0.8,1.4-1.6,1.4l0,0C362.4,411.8,362.3,411.8,362.3,411.8z M355.8,409.2
		c-0.2-0.8,0.4-1.7,1.2-1.8l0,0c0.8-0.2,1.7,0.4,1.8,1.2l0,0c0.2,0.8-0.4,1.7-1.2,1.8l0,0c-0.1,0-0.2,0-0.3,0l0,0
		C356.6,410.4,355.9,409.9,355.8,409.2z M362.8,405.6c-0.8-0.1-1.5-0.8-1.4-1.7l0,0c0.1-0.9,0.8-1.5,1.7-1.4l0,0
		c0.9,0.1,1.5,0.8,1.4,1.7l0,0c-0.1,0.8-0.7,1.4-1.6,1.4l0,0C362.9,405.6,362.8,405.6,362.8,405.6z M354.6,403.1
		c-0.2-0.8,0.4-1.7,1.2-1.8l0,0c0.8-0.2,1.7,0.4,1.8,1.2l0,0c0.2,0.8-0.4,1.7-1.2,1.8l0,0c-0.1,0-0.2,0-0.3,0l0,0
		C355.4,404.3,354.7,403.8,354.6,403.1z M424.6,399.6c-0.1-0.9,0.4-1.6,1.3-1.8l0,0c0.2,0,0.5,0,0.7,0.1l0,0c0.4-0.7,1.2-0.9,2-0.6
		l0,0c0.8,0.3,1.1,1.3,0.8,2.1l0,0c-0.3,0.7-1.2,1.1-1.9,0.8l0,0c-0.2,0.4-0.6,0.7-1.1,0.7l0,0c-0.1,0-0.2,0-0.2,0l0,0
		C425.4,401,424.8,400.4,424.6,399.6z M363.3,399.4c-0.8-0.1-1.5-0.8-1.4-1.7l0,0c0.1-0.9,0.8-1.5,1.7-1.4l0,0
		c0.9,0.1,1.5,0.8,1.4,1.7l0,0c-0.1,0.8-0.7,1.4-1.6,1.4l0,0C363.4,399.4,363.3,399.4,363.3,399.4z M353.4,397
		c-0.2-0.8,0.4-1.7,1.2-1.8l0,0c0.8-0.2,1.7,0.4,1.8,1.2l0,0c0.2,0.8-0.4,1.7-1.2,1.8l0,0c-0.1,0-0.2,0-0.3,0l0,0
		C354.2,398.2,353.5,397.7,353.4,397z M423.7,393.5c-0.1-0.8,0.4-1.6,1.3-1.8l0,0c0.9-0.1,1.7,0.4,1.8,1.3l0,0
		c0.1,0.8-0.4,1.6-1.3,1.8l0,0c-0.1,0-0.2,0-0.2,0l0,0C424.5,394.8,423.8,394.3,423.7,393.5z M429.9,394.5c-0.8-0.3-1.1-1.3-0.8-2
		l0,0c0.3-0.8,1.3-1.1,2.1-0.8l0,0c0.8,0.3,1.1,1.3,0.8,2.1l0,0c-0.2,0.6-0.8,0.9-1.4,0.9l0,0C430.3,394.6,430.1,394.5,429.9,394.5z
		 M363.8,393.2c-0.8-0.1-1.5-0.8-1.4-1.7l0,0c0.1-0.9,0.8-1.5,1.7-1.4l0,0c0.9,0.1,1.5,0.8,1.4,1.7l0,0c-0.1,0.8-0.7,1.4-1.6,1.4
		l0,0C363.8,393.2,363.8,393.2,363.8,393.2z M352.2,390.9c-0.2-0.8,0.4-1.7,1.2-1.8l0,0c0.8-0.2,1.7,0.4,1.8,1.2l0,0
		c0.2,0.8-0.4,1.7-1.2,1.8l0,0c-0.1,0-0.2,0-0.3,0l0,0C353,392.1,352.3,391.6,352.2,390.9z M432.4,388.8c-0.8-0.3-1.1-1.3-0.8-2l0,0
		l0,0l0,0c0.3-0.8,1.3-1.1,2-0.8l0,0c0.8,0.3,1.1,1.3,0.8,2l0,0c-0.3,0.6-0.8,0.9-1.4,0.9l0,0C432.8,388.9,432.6,388.9,432.4,388.8z
		 M422.8,387.4c-0.1-0.8,0.4-1.6,1.3-1.8l0,0c0.8-0.1,1.6,0.4,1.8,1.3l0,0c0.1,0.8-0.4,1.6-1.3,1.8l0,0c-0.1,0-0.2,0-0.2,0l0,0
		C423.5,388.7,422.9,388.1,422.8,387.4z M364.2,387.1c-0.8-0.1-1.5-0.8-1.4-1.7l0,0c0.1-0.9,0.8-1.5,1.7-1.4l0,0
		c0.9,0.1,1.5,0.8,1.4,1.7l0,0c-0.1,0.8-0.7,1.4-1.6,1.4l0,0C364.3,387.1,364.3,387.1,364.2,387.1z M447,383.3c-0.3-0.8,0.2-1.7,1-2
		l0,0c0.8-0.3,1.7,0.2,2,1l0,0c0.3,0.8-0.2,1.7-1,2l0,0c-0.2,0-0.3,0.1-0.5,0.1l0,0C447.8,384.4,447.2,384,447,383.3z M434.7,383
		c-0.8-0.3-1.3-1.1-1-2l0,0c0.3-0.8,1.1-1.3,2-1l0,0c0.8,0.3,1.3,1.1,1,2l0,0c-0.2,0.7-0.8,1.1-1.5,1.1l0,0
		C435.1,383.1,434.9,383.1,434.7,383z M421.8,381.2L421.8,381.2c-0.1-0.8,0.4-1.6,1.3-1.8l0,0c0.8-0.1,1.6,0.4,1.8,1.3l0,0
		c0.1,0.8-0.5,1.6-1.3,1.8l0,0c-0.1,0-0.2,0-0.2,0l0,0C422.6,382.5,421.9,382,421.8,381.2z M449.3,381.3c-0.9-0.1-1.5-0.9-1.4-1.7
		l0,0c0.1-0.9,0.9-1.5,1.7-1.4l0,0c0.9,0.1,1.5,0.9,1.4,1.7l0,0c-0.1,0.8-0.8,1.4-1.5,1.4l0,0C449.4,381.3,449.4,381.3,449.3,381.3z
		 M364.7,380.9c-0.9-0.1-1.5-0.8-1.4-1.7l0,0c0.1-0.9,0.8-1.5,1.7-1.4l0,0c0.9,0.1,1.5,0.8,1.4,1.7l0,0c-0.1,0.8-0.7,1.4-1.5,1.4
		l0,0C364.8,380.9,364.8,380.9,364.7,380.9z M445.1,377.4c-0.3-0.8,0.2-1.7,1-1.9l0,0c0.8-0.3,1.7,0.2,2,1l0,0c0.3,0.8-0.2,1.7-1,2
		l0,0c-0.2,0-0.3,0.1-0.5,0.1l0,0C445.9,378.5,445.3,378,445.1,377.4z M436.6,377.1c-0.8-0.3-1.3-1.1-1-2l0,0c0.3-0.8,1.1-1.3,1.9-1
		l0,0c0.8,0.3,1.3,1.1,1,2l0,0c-0.2,0.7-0.8,1.1-1.5,1.1l0,0C437,377.2,436.8,377.2,436.6,377.1z M420.9,375.1
		c-0.1-0.8,0.4-1.6,1.3-1.8l0,0c0.8-0.1,1.6,0.5,1.8,1.3l0,0l0,0l0,0c0.1,0.8-0.4,1.6-1.3,1.8l0,0c-0.1,0-0.2,0-0.2,0l0,0
		C421.6,376.4,421,375.8,420.9,375.1z M450,375.1c-0.9-0.1-1.5-0.9-1.4-1.7l0,0c0.1-0.9,0.9-1.5,1.7-1.4l0,0
		c0.9,0.1,1.5,0.9,1.4,1.7l0,0c-0.1,0.8-0.8,1.4-1.6,1.4l0,0C450.1,375.2,450.1,375.2,450,375.1z M365.2,374.7
		c-0.9-0.1-1.5-0.8-1.4-1.7l0,0c0.1-0.9,0.8-1.5,1.7-1.4l0,0c0.9,0.1,1.5,0.8,1.4,1.7l0,0c-0.1,0.8-0.7,1.4-1.5,1.4l0,0
		C365.3,374.7,365.3,374.7,365.2,374.7z M443.2,371.5c-0.3-0.8,0.2-1.7,1-2l0,0c0.8-0.3,1.7,0.2,1.9,1l0,0c0.3,0.8-0.2,1.7-1,1.9
		l0,0c-0.2,0-0.3,0.1-0.5,0.1l0,0C444,372.6,443.4,372.1,443.2,371.5z M438.5,371.2c-0.8-0.3-1.3-1.1-1-2l0,0c0.3-0.8,1.1-1.3,2-1
		l0,0c0.8,0.3,1.3,1.1,1,1.9l0,0c-0.2,0.7-0.8,1.1-1.5,1.1l0,0C438.8,371.3,438.7,371.3,438.5,371.2z M419.9,368.9
		c-0.1-0.9,0.5-1.6,1.3-1.8l0,0c0.8-0.1,1.6,0.4,1.8,1.3l0,0c0.1,0.8-0.5,1.6-1.3,1.8l0,0c-0.1,0-0.2,0-0.2,0l0,0
		C420.7,370.3,420,369.7,419.9,368.9z M450.7,369c-0.8-0.1-1.5-0.9-1.4-1.7l0,0c0.1-0.9,0.9-1.5,1.7-1.4l0,0
		c0.8,0.1,1.5,0.9,1.4,1.7l0,0c-0.1,0.8-0.8,1.4-1.5,1.4l0,0C450.8,369,450.7,369,450.7,369z M365.7,368.5c-0.9-0.1-1.5-0.8-1.4-1.7
		l0,0c0.1-0.9,0.8-1.5,1.7-1.4l0,0c0.8,0.1,1.5,0.8,1.4,1.7l0,0c-0.1,0.8-0.7,1.4-1.5,1.4l0,0C365.8,368.5,365.7,368.5,365.7,368.5z
		 M441.3,365.6c0-0.1,0-0.2,0-0.2l0,0c-0.3,0.1-0.6,0.1-0.8,0l0,0c-0.8-0.3-1.3-1.1-1-2l0,0c0.3-0.8,1.1-1.3,2-1l0,0
		c0.6,0.2,1,0.7,1.1,1.2l0,0c0.8-0.2,1.6,0.3,1.8,1l0,0c0.3,0.8-0.2,1.7-1,2l0,0c-0.2,0-0.3,0.1-0.5,0.1l0,0
		C442.1,366.6,441.5,366.2,441.3,365.6z M419,362.8c-0.1-0.9,0.4-1.7,1.3-1.8l0,0c0.8-0.1,1.6,0.4,1.8,1.3l0,0
		c0.1,0.9-0.4,1.6-1.3,1.8l0,0c-0.1,0-0.2,0-0.2,0l0,0C419.8,364.1,419.1,363.6,419,362.8z M451.4,362.8c-0.9-0.1-1.5-0.9-1.4-1.7
		l0,0c0.1-0.9,0.9-1.5,1.7-1.4l0,0c0.9,0.1,1.5,0.9,1.4,1.7l0,0c-0.1,0.8-0.8,1.4-1.5,1.4l0,0C451.5,362.8,451.4,362.8,451.4,362.8z
		 M366.2,362.3c-0.9-0.1-1.5-0.8-1.4-1.7l0,0c0.1-0.9,0.8-1.5,1.7-1.4l0,0c0.9,0.1,1.5,0.8,1.4,1.7l0,0c-0.1,0.8-0.7,1.4-1.6,1.4
		l0,0C366.3,362.3,366.2,362.3,366.2,362.3z M418,356.7c-0.1-0.8,0.4-1.6,1.3-1.8l0,0c0.8-0.1,1.6,0.4,1.8,1.3l0,0l0,0l0,0
		c0.1,0.9-0.4,1.6-1.3,1.8l0,0c-0.1,0-0.2,0-0.2,0l0,0C418.8,358,418.2,357.4,418,356.7z M452,356.6c-0.9-0.1-1.5-0.9-1.4-1.7l0,0
		c0.1-0.9,0.9-1.5,1.7-1.4l0,0c0.9,0.1,1.5,0.9,1.4,1.7l0,0c-0.1,0.8-0.8,1.4-1.5,1.4l0,0C452.2,356.6,452.1,356.6,452,356.6z
		 M366.7,356.1c-0.9-0.1-1.5-0.8-1.4-1.7l0,0c0.1-0.9,0.8-1.5,1.7-1.4l0,0c0.8,0.1,1.5,0.8,1.4,1.7l0,0c-0.1,0.8-0.7,1.4-1.6,1.4
		l0,0C366.8,356.1,366.7,356.1,366.7,356.1z M375.5,355.5c-0.7-0.5-0.9-1.5-0.4-2.2l0,0c0.5-0.7,1.5-0.9,2.2-0.4l0,0
		c0.7,0.5,0.9,1.5,0.4,2.2l0,0c-0.3,0.4-0.8,0.7-1.3,0.7l0,0C376.1,355.7,375.8,355.6,375.5,355.5z M372.6,351.1
		c-0.3-0.8,0.1-1.7,1-2l0,0c0.8-0.3,1.7,0.1,2,0.9l0,0c0.3,0.8-0.1,1.7-0.9,2l0,0c-0.2,0.1-0.3,0.1-0.5,0.1l0,0
		C373.4,352.2,372.8,351.8,372.6,351.1z M417.1,350.5L417.1,350.5c-0.1-0.8,0.4-1.6,1.3-1.8l0,0c0.8-0.1,1.6,0.5,1.8,1.3l0,0l0,0
		l0,0c0.1,0.8-0.4,1.6-1.3,1.8l0,0c-0.1,0-0.2,0-0.2,0l0,0C417.9,351.8,417.2,351.3,417.1,350.5z M379.1,350.4
		c-0.7-0.5-0.9-1.5-0.4-2.2l0,0c0.5-0.7,1.5-0.9,2.2-0.4l0,0c0.7,0.5,0.9,1.5,0.4,2.2l0,0c-0.3,0.4-0.8,0.6-1.3,0.6l0,0
		C379.7,350.7,379.4,350.6,379.1,350.4z M452.7,350.4c-0.9-0.1-1.5-0.9-1.4-1.7l0,0c0.1-0.8,0.9-1.5,1.7-1.4l0,0
		c0.8,0.1,1.5,0.9,1.4,1.7l0,0c-0.1,0.8-0.8,1.4-1.5,1.4l0,0C452.8,350.5,452.8,350.4,452.7,350.4z M367.2,349.9
		c-0.8-0.1-1.5-0.8-1.4-1.7l0,0c0.1-0.8,0.8-1.5,1.7-1.4l0,0c0.9,0.1,1.5,0.8,1.4,1.7l0,0c-0.1,0.8-0.7,1.4-1.5,1.4l0,0
		C367.2,349.9,367.2,349.9,367.2,349.9z M370.5,345.3c-0.3-0.8,0.1-1.7,1-2l0,0c0.8-0.3,1.7,0.1,2,1l0,0c0.3,0.8-0.1,1.7-0.9,2l0,0
		c-0.2,0.1-0.3,0.1-0.5,0.1l0,0C371.4,346.3,370.8,345.9,370.5,345.3z M416.1,344.4c-0.1-0.8,0.4-1.6,1.3-1.8l0,0
		c0.8-0.1,1.6,0.5,1.8,1.3l0,0c0.1,0.8-0.4,1.6-1.3,1.8l0,0c-0.1,0-0.1,0-0.2,0l0,0C416.9,345.7,416.3,345.2,416.1,344.4z
		 M383,345.4c-0.9-0.1-1.5-0.9-1.4-1.7l0,0c0.1-0.9,0.9-1.5,1.7-1.4l0,0c0.8,0.1,1.5,0.9,1.3,1.7l0,0c-0.1,0.8-0.8,1.4-1.5,1.4l0,0
		C383.1,345.4,383,345.4,383,345.4z M453.4,344.3c-0.9-0.1-1.5-0.9-1.4-1.7l0,0c0.1-0.9,0.9-1.5,1.7-1.4l0,0
		c0.9,0.1,1.5,0.9,1.4,1.7l0,0c-0.1,0.8-0.8,1.4-1.5,1.4l0,0C453.5,344.3,453.4,344.3,453.4,344.3z M367.6,343.7
		c-0.8-0.1-1.5-0.8-1.4-1.7l0,0c0.1-0.9,0.8-1.5,1.7-1.4l0,0c0.9,0.1,1.5,0.8,1.4,1.7l0,0c-0.1,0.8-0.7,1.4-1.6,1.4l0,0
		C367.7,343.7,367.7,343.7,367.6,343.7z M368.5,339.4c-0.3-0.8,0.1-1.7,0.9-2l0,0c0.8-0.3,1.7,0.1,2,0.9l0,0c0.3,0.8-0.1,1.7-0.9,2
		l0,0c-0.2,0.1-0.3,0.1-0.5,0.1l0,0C369.3,340.4,368.7,340,368.5,339.4z M415.2,338.2c-0.1-0.8,0.4-1.6,1.3-1.8l0,0
		c0.8-0.1,1.6,0.5,1.8,1.3l0,0c0.1,0.8-0.5,1.6-1.3,1.8l0,0c-0.1,0-0.2,0-0.2,0l0,0C416,339.6,415.3,339,415.2,338.2z M383.7,339.2
		c-0.8-0.1-1.5-0.9-1.3-1.7l0,0c0.1-0.8,0.9-1.5,1.7-1.3l0,0c0.8,0.1,1.5,0.9,1.3,1.7l0,0c-0.1,0.8-0.8,1.4-1.5,1.4l0,0
		C383.9,339.3,383.8,339.3,383.7,339.2z M454.1,338.1c-0.9-0.1-1.5-0.9-1.4-1.7l0,0c0.1-0.9,0.9-1.5,1.7-1.4l0,0
		c0.8,0.1,1.5,0.9,1.4,1.7l0,0c-0.1,0.8-0.8,1.4-1.5,1.4l0,0C454.2,338.1,454.1,338.1,454.1,338.1z M368.1,337.5
		c-0.8-0.1-1.5-0.8-1.4-1.7l0,0c0.1-0.8,0.8-1.5,1.7-1.4l0,0c0.9,0.1,1.5,0.8,1.4,1.7l0,0c-0.1,0.8-0.7,1.4-1.6,1.4l0,0
		C368.2,337.5,368.2,337.5,368.1,337.5z M414.2,332.1c-0.1-0.8,0.5-1.6,1.3-1.8l0,0c0.8-0.1,1.6,0.4,1.8,1.3l0,0c0,0,0,0,0,0l0,0
		c0.1,0.8-0.5,1.6-1.3,1.8l0,0c-0.1,0-0.2,0-0.2,0l0,0C415,333.4,414.4,332.9,414.2,332.1z M384.5,333.1c-0.9-0.1-1.5-0.9-1.3-1.7
		l0,0c0.1-0.8,0.9-1.5,1.7-1.3l0,0c0.9,0.1,1.5,0.9,1.4,1.7l0,0c-0.1,0.8-0.8,1.4-1.5,1.4l0,0C384.7,333.1,384.6,333.1,384.5,333.1z
		 M454.7,331.9c-0.9-0.1-1.5-0.9-1.4-1.7l0,0c0.1-0.9,0.9-1.5,1.7-1.4l0,0c0.9,0.1,1.5,0.9,1.4,1.7l0,0c-0.1,0.8-0.8,1.4-1.5,1.4
		l0,0C454.9,331.9,454.8,331.9,454.7,331.9z M413.3,326c-0.1-0.9,0.5-1.7,1.3-1.8l0,0c0.8-0.1,1.6,0.4,1.8,1.3l0,0
		c0.1,0.8-0.4,1.6-1.3,1.8l0,0c-0.1,0-0.2,0-0.2,0l0,0C414.1,327.3,413.4,326.7,413.3,326z M385.3,326.9c-0.9-0.1-1.5-0.9-1.4-1.7
		l0,0c0.1-0.8,0.9-1.5,1.7-1.3l0,0c0.8,0.1,1.5,0.9,1.3,1.7l0,0c-0.1,0.8-0.8,1.4-1.5,1.4l0,0C385.4,326.9,385.4,326.9,385.3,326.9z
		 M455.4,325.7c-0.9-0.1-1.5-0.9-1.4-1.7l0,0c0.1-0.9,0.9-1.5,1.7-1.4l0,0c0.9,0.1,1.5,0.9,1.4,1.7l0,0c-0.1,0.8-0.8,1.4-1.5,1.4
		l0,0C455.5,325.8,455.5,325.7,455.4,325.7z M412.4,319.8c-0.1-0.8,0.4-1.6,1.3-1.8l0,0c0.8-0.1,1.6,0.4,1.8,1.3l0,0
		c0.1,0.8-0.4,1.6-1.3,1.8l0,0c-0.1,0-0.2,0-0.2,0l0,0C413.1,321.1,412.5,320.6,412.4,319.8z M386.1,320.8c-0.8-0.1-1.5-0.9-1.3-1.7
		l0,0c0.1-0.8,0.9-1.5,1.7-1.3l0,0c0.9,0.1,1.5,0.9,1.4,1.7l0,0c-0.1,0.8-0.8,1.4-1.5,1.4l0,0C386.2,320.8,386.1,320.8,386.1,320.8z
		 M467.9,320.7c-0.8-0.2-1.3-1.1-1.1-1.9l0,0c0.2-0.8,1.1-1.3,1.9-1.1l0,0c0.8,0.2,1.3,1.1,1.1,1.9l0,0c-0.2,0.7-0.8,1.1-1.5,1.1
		l0,0C468.2,320.7,468.1,320.7,467.9,320.7z M456.1,319.6c-0.9-0.1-1.5-0.9-1.4-1.7l0,0c0.1-0.9,0.9-1.5,1.7-1.4l0,0
		c0.8,0.1,1.5,0.9,1.4,1.7l0,0c-0.1,0.8-0.8,1.4-1.5,1.4l0,0C456.2,319.6,456.2,319.6,456.1,319.6z M460.8,317.8
		c0-0.9,0.7-1.6,1.6-1.6l0,0c0.9,0,1.6,0.7,1.6,1.6l0,0c0,0.9-0.7,1.6-1.6,1.6l0,0C461.5,319.4,460.8,318.7,460.8,317.8z M471.1,318
		c-0.9-0.1-1.5-0.8-1.4-1.7l0,0c0,0,0,0,0,0l0,0c0.1-0.9,0.8-1.5,1.7-1.4l0,0c0.8,0.1,1.5,0.8,1.4,1.7h0c-0.1,0.8-0.7,1.4-1.5,1.4
		l0,0C471.2,318,471.2,318,471.1,318z M411.4,313.7L411.4,313.7c-0.1-0.8,0.4-1.6,1.3-1.8l0,0c0.8-0.1,1.6,0.4,1.8,1.3l0,0
		c0.1,0.8-0.4,1.6-1.3,1.8l0,0c-0.1,0-0.2,0-0.2,0l0,0C412.2,315,411.5,314.5,411.4,313.7z M386.8,314.6c-0.9-0.1-1.5-0.9-1.3-1.7
		l0,0c0.1-0.8,0.9-1.5,1.7-1.3l0,0c0.9,0.1,1.5,0.9,1.3,1.7l0,0c-0.1,0.8-0.8,1.4-1.5,1.4l0,0C387,314.6,386.9,314.6,386.8,314.6z
		 M471.7,311.8c-0.8-0.1-1.5-0.8-1.4-1.7l0,0l0,0l0,0c0.1-0.9,0.8-1.5,1.7-1.4l0,0c0.8,0.1,1.5,0.8,1.4,1.7l0,0
		c-0.1,0.8-0.7,1.4-1.5,1.4l0,0C471.8,311.8,471.8,311.8,471.7,311.8z M410.6,307.4c-0.1-0.9,0.5-1.6,1.4-1.7l0,0
		c0.9-0.1,1.6,0.5,1.7,1.4l0,0c0.1,0.8-0.5,1.6-1.4,1.7l0,0c-0.1,0-0.1,0-0.2,0l0,0C411.3,308.9,410.7,308.2,410.6,307.4z
		 M387.6,308.4c-0.8-0.1-1.5-0.9-1.3-1.7l0,0c0.1-0.8,0.9-1.5,1.7-1.3l0,0c0.9,0.1,1.5,0.9,1.4,1.7l0,0c-0.1,0.8-0.8,1.4-1.5,1.4
		l0,0C387.8,308.5,387.7,308.4,387.6,308.4z M472.3,305.6c-0.9-0.1-1.5-0.8-1.4-1.7l0,0c0,0,0,0,0,0l0,0c0.1-0.9,0.8-1.5,1.7-1.4
		l0,0c0.8,0.1,1.5,0.8,1.4,1.7l0,0c-0.1,0.8-0.7,1.4-1.5,1.4l0,0C472.4,305.6,472.4,305.6,472.3,305.6z M410,301.3
		c-0.1-0.9,0.5-1.6,1.4-1.7l0,0c0.9-0.1,1.6,0.5,1.7,1.4l0,0c0.1,0.9-0.5,1.6-1.4,1.7l0,0c0,0-0.1,0-0.2,0l0,0
		C410.7,302.7,410.1,302.1,410,301.3z M388.4,302.3c-0.9-0.1-1.5-0.9-1.3-1.7l0,0c0.1-0.9,0.9-1.5,1.7-1.3l0,0
		c0.9,0.1,1.5,0.9,1.4,1.7l0,0c-0.1,0.8-0.8,1.4-1.5,1.4l0,0C388.5,302.3,388.5,302.3,388.4,302.3z M472.9,299.4
		c-0.9-0.1-1.5-0.8-1.4-1.7l0,0c0.1-0.8,0.8-1.5,1.7-1.4l0,0c0.8,0.1,1.5,0.8,1.4,1.7l0,0c-0.1,0.8-0.8,1.4-1.6,1.4l0,0
		C473,299.4,472.9,299.4,472.9,299.4z M409.4,295.1c-0.1-0.9,0.5-1.6,1.4-1.7l0,0c0.9-0.1,1.6,0.5,1.7,1.4l0,0
		c0.1,0.9-0.5,1.6-1.4,1.7l0,0c0,0-0.1,0-0.1,0l0,0C410.1,296.5,409.4,295.9,409.4,295.1z M389.2,296.1c-0.8-0.1-1.5-0.9-1.3-1.7
		l0,0c0.1-0.9,0.9-1.5,1.7-1.3l0,0c0.8,0.1,1.5,0.9,1.3,1.7l0,0c-0.1,0.8-0.8,1.4-1.5,1.4l0,0C389.3,296.1,389.2,296.1,389.2,296.1z
		 M473.5,293.2c-0.8-0.1-1.5-0.8-1.4-1.7l0,0c0,0,0,0,0,0l0,0c0.1-0.8,0.8-1.5,1.7-1.4l0,0c0.8,0.1,1.5,0.8,1.4,1.7l0,0
		c-0.1,0.8-0.8,1.4-1.6,1.4l0,0C473.6,293.2,473.5,293.2,473.5,293.2z M408.8,288.9c-0.1-0.9,0.5-1.6,1.4-1.7l0,0
		c0.9-0.1,1.6,0.5,1.7,1.4l0,0c0.1,0.9-0.5,1.6-1.4,1.7l0,0c0,0-0.1,0-0.1,0l0,0C409.5,290.3,408.8,289.7,408.8,288.9z M390,289.9
		c-0.8-0.1-1.5-0.9-1.3-1.7l0,0c0.1-0.9,0.9-1.5,1.7-1.4l0,0c0.9,0.1,1.5,0.9,1.4,1.7l0,0c-0.1,0.8-0.8,1.4-1.5,1.4l0,0
		C390.1,290,390,290,390,289.9z M474.1,287.1c-0.9-0.1-1.5-0.8-1.4-1.7l0,0c0.1-0.9,0.8-1.5,1.7-1.4l0,0c0.8,0.1,1.5,0.8,1.4,1.7
		l0,0c-0.1,0.8-0.7,1.4-1.5,1.4l0,0C474.2,287.1,474.1,287.1,474.1,287.1z M408.2,282.7c-0.1-0.8,0.5-1.6,1.4-1.7l0,0
		c0.8-0.1,1.6,0.5,1.7,1.4l0,0c0.1,0.9-0.5,1.6-1.4,1.7l0,0c0,0-0.1,0-0.1,0l0,0C408.9,284.1,408.2,283.5,408.2,282.7z M390.6,283.8
		c-0.9-0.1-1.5-0.8-1.4-1.7l0,0c0.1-0.9,0.8-1.5,1.7-1.4l0,0c0.9,0.1,1.5,0.8,1.4,1.7l0,0c-0.1,0.8-0.8,1.4-1.5,1.4l0,0
		C390.7,283.8,390.7,283.8,390.6,283.8z M474.6,280.9c-0.9-0.1-1.5-0.8-1.4-1.7l0,0c0.1-0.9,0.8-1.5,1.7-1.4l0,0
		c0.9,0.1,1.5,0.8,1.4,1.7h0c-0.1,0.8-0.7,1.4-1.5,1.4l0,0C474.7,280.9,474.7,280.9,474.6,280.9z M407.6,276.5
		c-0.1-0.9,0.5-1.6,1.4-1.7l0,0c0.9-0.1,1.6,0.5,1.7,1.4l0,0c0.1,0.9-0.5,1.6-1.4,1.7l0,0c0,0-0.1,0-0.1,0l0,0
		C408.3,277.9,407.6,277.3,407.6,276.5z M391.3,277.6c-0.9-0.1-1.5-0.8-1.4-1.7l0,0c0.1-0.9,0.8-1.5,1.7-1.4l0,0
		c0.9,0.1,1.5,0.8,1.4,1.7l0,0c-0.1,0.8-0.7,1.4-1.5,1.4l0,0C391.4,277.6,391.3,277.6,391.3,277.6z M475.2,274.7
		c-0.8-0.1-1.5-0.8-1.4-1.7l0,0c0.1-0.9,0.8-1.5,1.7-1.4l0,0c0.9,0.1,1.5,0.8,1.4,1.7l0,0c-0.1,0.8-0.8,1.4-1.6,1.4l0,0
		C475.3,274.7,475.3,274.7,475.2,274.7z M406.9,270.4c-0.1-0.9,0.5-1.6,1.4-1.7l0,0c0.9-0.1,1.6,0.5,1.7,1.4l0,0
		c0.1,0.9-0.5,1.6-1.4,1.7l0,0c0,0-0.1,0-0.2,0l0,0C407.7,271.8,407,271.2,406.9,270.4z M391.9,271.4c-0.8-0.1-1.5-0.8-1.4-1.7l0,0
		c0.1-0.9,0.8-1.5,1.7-1.4l0,0c0.8,0.1,1.5,0.8,1.4,1.7l0,0c-0.1,0.8-0.8,1.4-1.5,1.4l0,0C392,271.4,391.9,271.4,391.9,271.4z
		 M475.8,268.5c-0.8-0.1-1.5-0.8-1.4-1.7l0,0l0,0l0,0c0.1-0.8,0.8-1.5,1.7-1.4l0,0c0.9,0.1,1.5,0.8,1.4,1.7l0,0
		c-0.1,0.8-0.7,1.4-1.5,1.4l0,0C475.9,268.5,475.9,268.5,475.8,268.5z M406.3,264.2c-0.1-0.9,0.5-1.6,1.4-1.7l0,0
		c0.8-0.1,1.6,0.5,1.7,1.4l0,0c0.1,0.9-0.5,1.6-1.4,1.7l0,0c0,0-0.1,0-0.1,0l0,0C407.1,265.6,406.4,265,406.3,264.2z M392.5,265.2
		c-0.9-0.1-1.5-0.8-1.4-1.7l0,0c0.1-0.8,0.8-1.5,1.7-1.4l0,0c0.9,0.1,1.5,0.8,1.4,1.7l0,0c-0.1,0.8-0.8,1.4-1.6,1.4l0,0
		C392.6,265.2,392.5,265.2,392.5,265.2z M476.4,262.3c-0.9-0.1-1.5-0.8-1.4-1.7l0,0l0,0l0,0c0.1-0.9,0.8-1.5,1.7-1.4l0,0
		c0.9,0.1,1.5,0.8,1.4,1.7l0,0c-0.1,0.8-0.8,1.4-1.6,1.4l0,0C476.5,262.3,476.5,262.3,476.4,262.3z M405.7,258
		c-0.1-0.9,0.5-1.6,1.4-1.7l0,0c0.9-0.1,1.6,0.5,1.7,1.4l0,0c0.1,0.9-0.5,1.6-1.4,1.7l0,0c0,0-0.1,0-0.1,0l0,0
		C406.5,259.4,405.8,258.8,405.7,258z M393.1,259.1c-0.9-0.1-1.5-0.8-1.4-1.7l0,0c0.1-0.9,0.8-1.5,1.7-1.4l0,0
		c0.9,0.1,1.5,0.8,1.4,1.7l0,0c-0.1,0.8-0.7,1.4-1.5,1.4l0,0C393.2,259.1,393.1,259.1,393.1,259.1z M477,256.1
		c-0.8-0.1-1.5-0.8-1.4-1.7l0,0c0.1-0.9,0.8-1.5,1.7-1.4l0,0c0.9,0.1,1.5,0.8,1.4,1.7l0,0c-0.1,0.8-0.8,1.4-1.6,1.4l0,0
		C477.1,256.1,477,256.1,477,256.1z M405.1,251.8c-0.1-0.9,0.5-1.6,1.4-1.7l0,0c0.9-0.1,1.6,0.5,1.7,1.4l0,0
		c0.1,0.9-0.5,1.6-1.4,1.7l0,0c0,0-0.1,0-0.2,0l0,0C405.9,253.2,405.2,252.6,405.1,251.8z M393.7,252.9c-0.8-0.1-1.5-0.8-1.4-1.7
		l0,0c0.1-0.9,0.8-1.5,1.7-1.4l0,0c0.8,0.1,1.5,0.8,1.4,1.7l0,0c-0.1,0.8-0.8,1.4-1.5,1.4l0,0C393.8,252.9,393.7,252.9,393.7,252.9z
		 M477.6,249.9c-0.9-0.1-1.5-0.8-1.4-1.7l0,0l0,0l0,0c0.1-0.9,0.8-1.5,1.7-1.4l0,0c0.9,0.1,1.5,0.8,1.4,1.7l0,0
		c-0.1,0.8-0.8,1.4-1.5,1.4l0,0C477.7,250,477.6,250,477.6,249.9z M404.5,245.6c-0.1-0.8,0.5-1.6,1.4-1.7l0,0
		c0.9-0.1,1.6,0.5,1.7,1.4l0,0c0.1,0.9-0.5,1.6-1.4,1.7l0,0c0,0-0.1,0-0.1,0l0,0C405.3,247,404.6,246.4,404.5,245.6z M394.3,246.7
		c-0.9-0.1-1.5-0.8-1.4-1.7l0,0c0.1-0.8,0.8-1.5,1.7-1.4l0,0c0.9,0.1,1.5,0.8,1.4,1.7l0,0c-0.1,0.8-0.7,1.4-1.5,1.4l0,0
		C394.4,246.7,394.3,246.7,394.3,246.7z M478.1,243.8c-0.8-0.1-1.5-0.8-1.4-1.7l0,0c0,0,0,0,0,0l0,0c0.1-0.9,0.8-1.5,1.7-1.4l0,0
		c0.9,0.1,1.5,0.8,1.4,1.7l0,0c-0.1,0.8-0.7,1.4-1.5,1.4l0,0C478.2,243.8,478.2,243.8,478.1,243.8z M403.9,239.4
		c-0.1-0.9,0.5-1.6,1.4-1.7l0,0c0.9-0.1,1.6,0.5,1.7,1.4l0,0c0.1,0.8-0.5,1.6-1.4,1.7l0,0c0,0-0.1,0-0.1,0l0,0
		C404.7,240.9,404,240.3,403.9,239.4z M394.9,240.5c-0.9-0.1-1.5-0.8-1.4-1.7l0,0c0.1-0.9,0.8-1.5,1.7-1.4l0,0
		c0.8,0.1,1.5,0.8,1.4,1.7l0,0c-0.1,0.8-0.8,1.4-1.5,1.4l0,0C395,240.5,394.9,240.5,394.9,240.5z M478.7,237.6
		c-0.9-0.1-1.5-0.8-1.4-1.7l0,0l0,0l0,0c0.1-0.9,0.8-1.5,1.7-1.4l0,0c0.9,0.1,1.5,0.8,1.4,1.7l0,0c-0.1,0.8-0.8,1.4-1.5,1.4l0,0
		C478.8,237.6,478.8,237.6,478.7,237.6z M403.1,233.7c-0.3-0.8,0.2-1.7,1-2l0,0c0.8-0.3,1.7,0.2,1.9,1l0,0c0.3,0.8-0.2,1.7-1,2l0,0
		c-0.1,0-0.3,0.1-0.5,0.1l0,0C403.9,234.7,403.3,234.3,403.1,233.7z M395.5,234.3c-0.9-0.1-1.5-0.8-1.4-1.7l0,0
		c0.1-0.9,0.8-1.5,1.7-1.4l0,0c0.9,0.1,1.5,0.8,1.4,1.7l0,0c-0.1,0.8-0.8,1.4-1.6,1.4l0,0C395.6,234.3,395.5,234.3,395.5,234.3z
		 M401.2,227.7c-0.3-0.8,0.2-1.7,1-1.9l0,0c0.8-0.3,1.7,0.2,2,1l0,0c0.3,0.8-0.2,1.7-1,2l0,0c-0.2,0-0.3,0.1-0.5,0.1l0,0
		C402,228.8,401.4,228.4,401.2,227.7z M396.1,228.1c-0.9-0.1-1.5-0.8-1.4-1.7l0,0c0.1-0.9,0.8-1.5,1.7-1.4l0,0
		c0.9,0.1,1.5,0.8,1.4,1.7l0,0c-0.1,0.8-0.7,1.4-1.5,1.4l0,0C396.2,228.2,396.1,228.1,396.1,228.1z M399.3,221.8
		c-0.3-0.8,0.2-1.7,1-2l0,0c0.8-0.3,1.7,0.2,2,1l0,0c0.3,0.8-0.2,1.7-1,1.9l0,0c-0.2,0.1-0.3,0.1-0.5,0.1l0,0
		C400.1,222.9,399.5,222.5,399.3,221.8z M396.7,222c-0.9-0.1-1.5-0.8-1.4-1.7l0,0c0.1-0.9,0.8-1.5,1.7-1.4l0,0
		c0.8,0.1,1.5,0.8,1.4,1.7l0,0c-0.1,0.8-0.8,1.4-1.5,1.4l0,0C396.8,222,396.7,222,396.7,222z M397.4,215.9c0,0,0-0.1,0-0.1l0,0
		c0,0,0,0,0,0l0,0c-0.9-0.1-1.5-0.8-1.4-1.7l0,0c0.1-0.9,0.8-1.5,1.7-1.4l0,0c0.7,0.1,1.2,0.6,1.4,1.2l0,0c0.6,0,1.2,0.4,1.4,1.1
		l0,0c0.3,0.8-0.2,1.7-1,2l0,0c-0.2,0.1-0.3,0.1-0.5,0.1l0,0C398.2,217,397.6,216.6,397.4,215.9z"/>
	<polygon class="st1" points="338.7,442.9 330.2,363.7 322.9,305.6 316,233.4 311.2,241.5 303.9,280.9 295.4,309.9 286.5,289.7 
		281.7,285.6 274.4,364 265.4,358.9 259.8,358.9 251.1,408.1 242.3,355.5 234.9,313.9 228.3,248 216,282.8 208.5,352.6 198.6,352.6 
		192.3,327.6 186.6,345.5 179.1,360.4 172,366.5 163.2,411.1 154.4,365.9 147,316 139.8,281.4 135,278.7 128,316.5 120.5,325 
		111.3,343.3 104.9,312.5 98.7,358.1 84,370.6 75.4,429.7 66.4,376.3 59.1,320.2 51.9,291.8 47.1,289.1 40.1,326.4 31.8,378.9 
		22.5,347.5 15.2,330.9 18,329.7 25.5,346.5 30.9,364.8 37.1,325.9 44.8,284.2 54.6,289.8 62.2,319.7 69.5,375.8 75.2,409.7 
		81.1,369 95.8,356.5 104.3,294.1 112.5,333.9 118.1,323 125.1,315 132.8,273.8 142.6,279.4 150.1,315.4 157.4,365.4 163.2,395 
		169.1,364.8 176.6,358.4 183.7,344.3 192.7,316.3 201,349.5 205.8,349.5 213,282.2 213,282 230,233.8 238,313.5 245.3,355 
		251.2,389.7 257.2,355.8 266.2,355.8 271.8,358.9 279.2,279.4 289,287.8 294.8,300.9 300.9,280.1 308.3,240.4 318.2,223.5 
		326,305.2 333.3,363.4 339.5,421.4 345,391.4 353.3,389.1 354.1,392.1 347.7,393.9 	"/>
	<path class="st3" d="M359.2,387.4c-0.2-0.8,0.3-1.7,1.2-1.9l0,0c0.8-0.2,1.7,0.3,1.9,1.2l0,0c0.2,0.8-0.3,1.7-1.2,1.9l0,0
		c-0.1,0-0.2,0-0.3,0l0,0C360,388.6,359.4,388.1,359.2,387.4z M361.5,384.9c-0.8-0.1-1.4-0.9-1.3-1.8l0,0c0.1-0.9,0.9-1.4,1.8-1.3
		l0,0c0.9,0.1,1.4,0.9,1.3,1.8l0,0c-0.1,0.8-0.8,1.3-1.5,1.3l0,0C361.7,384.9,361.6,384.9,361.5,384.9z M357.8,381.3
		c-0.2-0.8,0.3-1.7,1.2-1.9l0,0c0.8-0.2,1.7,0.3,1.9,1.2l0,0c0.2,0.8-0.3,1.7-1.2,1.9l0,0c-0.1,0-0.2,0-0.4,0l0,0
		C358.6,382.5,358,382.1,357.8,381.3z M362.4,378.8c-0.9-0.1-1.4-0.9-1.3-1.8l0,0c0.1-0.9,0.9-1.4,1.8-1.3l0,0
		c0.8,0.1,1.4,0.9,1.3,1.8l0,0c-0.1,0.8-0.8,1.3-1.5,1.3l0,0C362.6,378.8,362.5,378.8,362.4,378.8z M356.4,375.3
		c-0.2-0.8,0.3-1.7,1.2-1.9l0,0c0.8-0.2,1.7,0.3,1.9,1.2l0,0c0.2,0.8-0.3,1.7-1.2,1.9l0,0c-0.1,0-0.2,0-0.3,0l0,0
		C357.2,376.5,356.6,376,356.4,375.3z M363.3,372.6c-0.8-0.1-1.4-0.9-1.3-1.8l0,0c0.1-0.8,0.9-1.4,1.8-1.3l0,0
		c0.8,0.1,1.4,0.9,1.3,1.8l0,0c-0.1,0.8-0.8,1.3-1.5,1.3l0,0C363.5,372.6,363.4,372.6,363.3,372.6z M355,369.2
		c-0.2-0.8,0.3-1.7,1.2-1.9l0,0c0.8-0.2,1.7,0.3,1.9,1.2l0,0c0.2,0.8-0.3,1.7-1.2,1.9l0,0c-0.1,0-0.2,0-0.4,0l0,0
		C355.8,370.4,355.2,370,355,369.2z M364.2,366.5c-0.8-0.1-1.4-0.9-1.3-1.8l0,0c0.1-0.8,0.9-1.4,1.8-1.3l0,0
		c0.8,0.1,1.4,0.9,1.3,1.8l0,0c-0.1,0.8-0.8,1.3-1.5,1.3l0,0C364.4,366.5,364.3,366.5,364.2,366.5z M353.6,363.2
		c-0.2-0.8,0.3-1.7,1.2-1.9l0,0c0.8-0.2,1.7,0.3,1.9,1.2l0,0c0.2,0.8-0.3,1.7-1.2,1.9l0,0c-0.1,0-0.2,0-0.4,0l0,0
		C354.4,364.4,353.8,363.9,353.6,363.2z M365.1,360.3c-0.8-0.1-1.4-0.9-1.3-1.8l0,0c0.1-0.8,0.9-1.4,1.8-1.3l0,0
		c0.9,0.1,1.4,0.9,1.3,1.8l0,0c-0.1,0.8-0.8,1.3-1.5,1.3l0,0C365.3,360.3,365.2,360.3,365.1,360.3z M352.2,357.1
		c-0.2-0.8,0.3-1.7,1.2-1.9l0,0c0.8-0.2,1.7,0.3,1.9,1.2l0,0c0.2,0.8-0.3,1.7-1.2,1.9l0,0c-0.1,0-0.2,0-0.4,0l0,0
		C353,358.3,352.4,357.9,352.2,357.1z M366,354.2c-0.8-0.1-1.4-0.9-1.3-1.8l0,0c0.1-0.9,0.9-1.4,1.8-1.3l0,0
		c0.9,0.1,1.4,0.9,1.3,1.8l0,0c-0.1,0.8-0.8,1.3-1.5,1.3l0,0C366.2,354.2,366.1,354.2,366,354.2z M366.9,348
		c-0.9-0.1-1.4-0.9-1.3-1.8l0,0c0.1-0.8,0.9-1.4,1.8-1.3l0,0c0.8,0.1,1.4,0.9,1.3,1.8l0,0c-0.1,0.8-0.8,1.3-1.5,1.3l0,0
		C367.1,348,367,348,366.9,348z M421.8,343.8c-0.3-0.8,0.1-1.7,0.9-2l0,0c0.8-0.3,1.7,0.1,2,0.9l0,0c0.3,0.8-0.1,1.7-0.9,2l0,0
		c-0.2,0.1-0.4,0.1-0.6,0.1l0,0C422.6,344.7,422,344.4,421.8,343.8z M416.9,344c-0.6-0.6-0.6-1.6,0-2.2l0,0c0.6-0.6,1.6-0.6,2.2,0
		l0,0c0.6,0.6,0.6,1.6,0,2.2l0,0c-0.3,0.3-0.7,0.5-1.1,0.5l0,0C417.6,344.5,417.2,344.3,416.9,344z M367.8,341.9
		c-0.9-0.1-1.4-0.9-1.3-1.8l0,0c0.1-0.8,0.9-1.4,1.8-1.3l0,0c0.8,0.1,1.4,0.9,1.3,1.8l0,0c-0.1,0.8-0.8,1.3-1.5,1.3l0,0
		C368,341.9,367.9,341.9,367.8,341.9z M427.4,341.2c-0.6-0.6-0.6-1.6,0-2.2l0,0c0.6-0.6,1.6-0.6,2.2,0l0,0c0.6,0.6,0.6,1.6,0,2.2
		l0,0c-0.3,0.3-0.7,0.5-1.1,0.5l0,0C428.1,341.7,427.7,341.5,427.4,341.2z M376.2,340.7c-0.3-0.8,0.1-1.7,0.9-2l0,0
		c0.8-0.3,1.7,0.1,2,0.9l0,0c0.3,0.8-0.1,1.7-0.9,2l0,0c-0.2,0.1-0.4,0.1-0.6,0.1l0,0C377,341.6,376.5,341.3,376.2,340.7z
		 M371.3,340.8c-0.8-0.3-1.2-1.2-0.9-2l0,0c0.3-0.8,1.2-1.2,2-0.9l0,0c0.8,0.3,1.2,1.2,0.9,2l0,0c-0.2,0.6-0.8,1-1.4,1l0,0
		C371.7,340.9,371.5,340.9,371.3,340.8z M412.5,339.6c-0.6-0.6-0.6-1.6,0-2.2l0,0c0.6-0.6,1.6-0.6,2.2,0l0,0c0.6,0.6,0.6,1.6,0,2.2
		l0,0c-0.3,0.3-0.7,0.4-1.1,0.4l0,0C413.2,340.1,412.8,339.9,412.5,339.6z M382,338.3c-0.3-0.8,0.2-1.7,1-1.9l0,0
		c0.8-0.2,1.7,0.2,1.9,1l0,0c0.3,0.8-0.2,1.7-1,2l0,0c-0.2,0-0.3,0.1-0.5,0.1l0,0C382.8,339.4,382.2,339,382,338.3z M407.7,337.6
		c-0.8-0.2-1.3-1.1-1.1-1.9l0,0c0.2-0.8,1.1-1.3,1.9-1.1l0,0c0.8,0.2,1.3,1.1,1.1,1.9l0,0c-0.2,0.7-0.8,1.2-1.5,1.2l0,0
		C408,337.7,407.8,337.7,407.7,337.6z M387.9,336.4c-0.3-0.8,0.2-1.7,1-1.9l0,0c0.8-0.2,1.7,0.2,1.9,1l0,0c0.3,0.8-0.2,1.7-1,2l0,0
		c-0.2,0-0.3,0.1-0.5,0.1l0,0C388.7,337.5,388.1,337.1,387.9,336.4z M431.8,336.8c-0.6-0.6-0.6-1.6,0-2.2l0,0c0.6-0.6,1.6-0.6,2.2,0
		l0,0c0.6,0.6,0.6,1.6,0,2.2l0,0c-0.3,0.3-0.7,0.5-1.1,0.5l0,0C432.5,337.3,432.1,337.1,431.8,336.8z M402,333.6
		c-0.5-0.7-0.3-1.7,0.4-2.1l0,0c0.7-0.5,1.7-0.3,2.2,0.4l0,0c0.5,0.7,0.3,1.7-0.4,2.1l0,0c-0.3,0.2-0.6,0.3-0.9,0.3l0,0
		C402.8,334.3,402.3,334.1,402,333.6z M392.3,332.6c-0.7-0.5-0.9-1.4-0.5-2.1l0,0c0.5-0.7,1.4-0.9,2.1-0.5l0,0
		c0.7,0.5,0.9,1.4,0.5,2.1l0,0c-0.3,0.5-0.8,0.7-1.3,0.7l0,0C392.9,332.9,392.6,332.8,392.3,332.6z M435.5,331.9
		c-0.8-0.4-1.1-1.3-0.7-2.1l0,0c0.4-0.8,1.3-1.1,2.1-0.7l0,0c0.8,0.4,1.1,1.3,0.7,2.1l0,0c-0.3,0.5-0.8,0.9-1.4,0.9l0,0
		C435.9,332.1,435.7,332,435.5,331.9z M398.6,328.5c-0.5-0.7-0.3-1.7,0.4-2.1l0,0c0.7-0.5,1.7-0.3,2.2,0.4l0,0
		c0.5,0.7,0.3,1.7-0.4,2.1l0,0c-0.3,0.2-0.6,0.3-0.9,0.3l0,0C399.4,329.2,398.9,328.9,398.6,328.5z M395.7,327.4
		c-0.7-0.5-0.9-1.4-0.5-2.1l0,0c0.5-0.7,1.4-0.9,2.1-0.5l0,0c0.7,0.5,0.9,1.4,0.5,2.1l0,0c-0.3,0.5-0.8,0.7-1.3,0.7l0,0
		C396.2,327.6,395.9,327.5,395.7,327.4z M438.2,326.3c-0.8-0.4-1.1-1.3-0.7-2.1l0,0c0.4-0.8,1.3-1.1,2.1-0.7l0,0
		c0.8,0.4,1.1,1.3,0.7,2.1l0,0c-0.3,0.5-0.8,0.9-1.4,0.9l0,0C438.7,326.5,438.4,326.4,438.2,326.3z M447.6,321.5
		c-0.9-0.1-1.5-0.8-1.4-1.7l0,0c0.1-0.9,0.8-1.5,1.7-1.4l0,0c0.9,0.1,1.5,0.8,1.4,1.7l0,0c-0.1,0.8-0.8,1.4-1.5,1.4l0,0
		C447.7,321.5,447.7,321.5,447.6,321.5z M440.9,320.8c-0.8-0.4-1.1-1.3-0.7-2.1l0,0c0.4-0.8,1.3-1.1,2.1-0.7l0,0
		c0.8,0.4,1.1,1.3,0.7,2.1l0,0c-0.3,0.5-0.8,0.9-1.4,0.9l0,0C441.4,320.9,441.2,320.9,440.9,320.8z M451.7,317.9
		c-0.5-0.7-0.4-1.6,0.3-2.2l0,0c0.7-0.5,1.7-0.4,2.2,0.2l0,0c0.5,0.7,0.4,1.7-0.3,2.2l0,0c-0.3,0.2-0.6,0.3-1,0.3l0,0
		C452.4,318.5,452,318.3,451.7,317.9z M456.5,314c-0.7-0.5-0.8-1.5-0.3-2.2l0,0c0.5-0.7,1.5-0.8,2.2-0.3l0,0
		c0.7,0.5,0.8,1.5,0.3,2.2l0,0c-0.3,0.4-0.8,0.6-1.2,0.6l0,0C457.1,314.3,456.8,314.2,456.5,314z M460.2,309
		c-0.7-0.5-0.8-1.5-0.3-2.2l0,0c0.5-0.7,1.5-0.8,2.2-0.3l0,0c0.7,0.5,0.8,1.5,0.3,2.2l0,0c-0.3,0.4-0.8,0.6-1.2,0.6l0,0
		C460.8,309.3,460.5,309.2,460.2,309z M470.4,307.8c-0.7-0.5-0.9-1.4-0.5-2.1l0,0c0.5-0.7,1.4-0.9,2.1-0.5l0,0
		c0.7,0.5,0.9,1.4,0.5,2.1l0,0c-0.3,0.5-0.8,0.7-1.3,0.7l0,0C471,308,470.7,307.9,470.4,307.8z M465.1,306.6c-0.8-0.3-1.3-1.1-1-2
		l0,0c0.3-0.8,1.2-1.3,2-1l0,0c0.8,0.3,1.3,1.1,1,2l0,0c-0.2,0.6-0.8,1.1-1.5,1.1l0,0C465.5,306.7,465.3,306.7,465.1,306.6z
		 M473.8,302.5c-0.7-0.5-0.9-1.4-0.5-2.1l0,0c0.5-0.7,1.4-0.9,2.1-0.5l0,0c0.7,0.5,0.9,1.4,0.5,2.1l0,0c-0.3,0.5-0.8,0.7-1.3,0.7
		l0,0C474.3,302.8,474,302.7,473.8,302.5z M477.1,297.3c-0.7-0.5-0.9-1.4-0.5-2.1l0,0c0.5-0.7,1.4-0.9,2.1-0.5l0,0
		c0.7,0.5,0.9,1.4,0.5,2.1l0,0c-0.3,0.5-0.8,0.7-1.3,0.7l0,0C477.7,297.6,477.4,297.5,477.1,297.3z M480.8,292.3
		c-0.7-0.5-0.8-1.5-0.2-2.2l0,0c0.5-0.7,1.5-0.8,2.2-0.2l0,0c0.7,0.5,0.8,1.5,0.2,2.2l0,0c-0.3,0.4-0.8,0.6-1.2,0.6l0,0
		C481.5,292.7,481.1,292.6,480.8,292.3z"/>
	<path class="st3" d="M353.7,358.3c-0.4,0-0.7-0.1-1-0.4l-6.8-6.2l-6.5,1.3c-0.7,0.2-1.5-0.3-1.8-1l-7.1-18l-6.6-2l-7.1-2.7
		l-6.9,0.9c-0.4,0-0.7,0-1-0.2l-7.3-4.6c-0.3-0.2-0.6-0.5-0.7-0.9l-7.3-25.8l-5.9-21.2l-5.8,20.9c0,0.1,0,0.2-0.1,0.2l-7.3,16
		c-0.1,0.3-0.3,0.5-0.5,0.6l-7.3,5.1c-0.6,0.4-1.4,0.4-2-0.2l-6.7-6.6l-6,1.9l-7,8.2l-7.3,11.6c-0.2,0.4-0.6,0.6-1,0.7
		c-0.4,0.1-0.9,0-1.2-0.3l-6.5-4.6l-6.5,3.7c-0.6,0.4-1.5,0.2-1.9-0.3l-5.8-6.6l-6.3,12.1c-0.3,0.5-0.7,0.8-1.3,0.8l-7.2,0.4
		l-7.3,1.2c-0.8,0.1-1.5-0.4-1.7-1.1l-6.5-23l-5.4,6.5l-7.3,10.6c-0.3,0.4-0.8,0.7-1.3,0.7c-0.5,0-1-0.3-1.3-0.8l-5.9-10.3l-6,12.3
		c-0.1,0.2-0.2,0.4-0.4,0.5l-7.3,6c-0.2,0.2-0.5,0.3-0.7,0.3l-7.3,1.1c-0.3,0-0.6,0-0.9-0.1l-6.3-3.1l-6.6,7.2
		c-0.4,0.4-1,0.6-1.6,0.4c-0.6-0.2-1-0.6-1.1-1.2l-6.2-36.7l-5.4,16.8c-0.2,0.6-0.7,1-1.3,1.1l-7,0.7l-7.1,3.5
		c-0.2,0.1-0.5,0.2-0.8,0.2l-6.5-0.3l-6.8,9.9c-0.1,0.1-0.1,0.2-0.2,0.2l-7.3,7.2c-0.2,0.2-0.4,0.3-0.7,0.4l-7.3,1.8
		c-0.6,0.1-1.1,0-1.5-0.5l-6.5-7.3l-6.3,2.9c-0.2,0.1-0.4,0.1-0.6,0.1l-7,0.3l-7,3.1l-7.2,4.7c-0.6,0.4-1.3,0.3-1.8-0.1l-7.3-5.7
		l-7.4-5.8c-0.7-0.5-0.8-1.5-0.3-2.2c0.5-0.7,1.5-0.8,2.2-0.3l7.3,5.8l6.5,5l6.4-4.2c0.1,0,0.1-0.1,0.2-0.1l7.3-3.3
		c0.2-0.1,0.4-0.1,0.6-0.1l7-0.3l7.1-3.3c0.6-0.3,1.4-0.1,1.8,0.4l6.7,7.4l6-1.5l6.9-6.8l7.3-10.5c0.3-0.4,0.8-0.7,1.4-0.7l6.9,0.3
		l7-3.5c0.2-0.1,0.3-0.1,0.5-0.2l6.3-0.7l7-21.8c0.2-0.7,0.9-1.1,1.6-1.1c0.7,0.1,1.3,0.6,1.4,1.3l6.8,39.8l5.2-5.7
		c0.5-0.5,1.2-0.6,1.8-0.3l6.9,3.3l6.4-1l6.7-5.5l7.2-14.6c0.3-0.5,0.8-0.8,1.3-0.9c0.6-0.1,1.1,0.3,1.4,0.8l6.1,10.7l5.9-8.6
		c0,0,0.1-0.1,0.1-0.1l7.3-8.8c0.4-0.4,1-0.6,1.5-0.5c0.6,0.1,1,0.5,1.2,1.1l6.9,24.5l6-1c0.1,0,0.1,0,0.2,0l6.4-0.4l6.9-13.4
		c0.2-0.5,0.7-0.8,1.2-0.8c0.5-0.1,1,0.1,1.4,0.5l6.5,7.3l6.2-3.6c0.5-0.3,1.2-0.3,1.7,0.1l6,4.2l6.5-10.3c0-0.1,0.1-0.1,0.1-0.2
		l7.3-8.6c0.2-0.2,0.4-0.4,0.7-0.5l7.3-2.4c0.6-0.2,1.2,0,1.6,0.4l6.4,6.4l5.9-4.1l7.1-15.5l7.3-26.2c0.2-0.7,0.8-1.1,1.5-1.1
		c0,0,0,0,0,0c0.7,0,1.3,0.5,1.5,1.1l7.3,26.6l7.1,25.2l6.4,4l6.8-0.9c0.3,0,0.5,0,0.8,0.1l7.3,2.9l7.2,2.2c0.5,0.1,0.8,0.5,1,0.9
		l6.9,17.5l6-1.2c0.5-0.1,1,0,1.4,0.4l7.3,6.7c0.6,0.6,0.7,1.6,0.1,2.2C354.6,358.2,354.1,358.3,353.7,358.3z"/>
	<path class="st2" d="M352.2,348c-0.2-0.8,0.3-1.7,1.2-1.9l0,0c0.8-0.2,1.7,0.3,1.9,1.2l0,0c0.2,0.8-0.3,1.7-1.2,1.9l0,0
		c-0.1,0-0.2,0-0.3,0l0,0C353,349.2,352.4,348.8,352.2,348z M358.3,346.6c-0.2-0.8,0.3-1.7,1.2-1.9l0,0c0.8-0.2,1.7,0.3,1.9,1.2l0,0
		c0.2,0.8-0.3,1.7-1.2,1.9l0,0c-0.1,0-0.2,0-0.3,0l0,0C359.1,347.9,358.4,347.4,358.3,346.6z M364.1,344.7c-0.3-0.8,0-1.7,0.8-2.1
		l0,0c0.8-0.3,1.7,0,2.1,0.8l0,0c0.3,0.8,0,1.7-0.8,2l0,0c-0.2,0.1-0.4,0.1-0.6,0.1l0,0C364.9,345.6,364.4,345.2,364.1,344.7z
		 M369.8,342.1c-0.4-0.8-0.1-1.7,0.7-2.1l0,0c0.8-0.4,1.7-0.1,2.1,0.7l0,0c0.4,0.8,0.1,1.7-0.7,2.1l0,0c-0.2,0.1-0.5,0.2-0.7,0.2
		l0,0C370.6,343,370,342.6,369.8,342.1z M419.5,340.4c-0.9,0-1.6-0.7-1.5-1.6l0,0c0-0.9,0.7-1.5,1.6-1.5l0,0c0.9,0,1.5,0.7,1.5,1.6
		l0,0C421,339.8,420.4,340.4,419.5,340.4L419.5,340.4C419.5,340.4,419.5,340.4,419.5,340.4z M413.3,340.4c-0.9,0-1.6-0.7-1.5-1.6
		l0,0c0-0.9,0.7-1.5,1.6-1.5l0,0c0.9,0,1.5,0.7,1.5,1.6l0,0C414.8,339.7,414.2,340.4,413.3,340.4L413.3,340.4L413.3,340.4z
		 M375.3,339.3c-0.3-0.8,0.1-1.7,0.9-2l0,0c0.8-0.3,1.7,0.1,2,0.9l0,0c0.3,0.8-0.1,1.7-0.9,2l0,0c-0.2,0.1-0.4,0.1-0.5,0.1l0,0
		C376.2,340.3,375.6,339.9,375.3,339.3z M406.9,339.5c-0.9-0.1-1.4-0.9-1.3-1.8l0,0c0.1-0.8,0.9-1.4,1.8-1.3l0,0
		c0.8,0.1,1.4,0.9,1.3,1.8l0,0c-0.1,0.8-0.8,1.3-1.5,1.3l0,0C407.1,339.5,407,339.5,406.9,339.5z M424,337.7
		c-0.2-0.8,0.2-1.7,1.1-1.9l0,0c0.8-0.2,1.7,0.2,1.9,1.1l0,0c0.2,0.8-0.3,1.7-1.1,1.9l0,0c-0.1,0-0.3,0-0.4,0l0,0
		C424.8,338.8,424.2,338.4,424,337.7z M400.7,338.3c-0.8-0.2-1.4-1-1.2-1.8l0,0c0.2-0.8,1-1.4,1.8-1.2l0,0c0.8,0.2,1.4,1,1.2,1.8
		l0,0c-0.1,0.7-0.8,1.2-1.5,1.2l0,0C401,338.3,400.8,338.3,400.7,338.3z M381.2,337.2c-0.3-0.8,0.1-1.7,0.9-2l0,0
		c0.8-0.3,1.7,0.1,2,0.9l0,0c0.3,0.8-0.1,1.7-0.9,2l0,0c-0.2,0.1-0.3,0.1-0.5,0.1l0,0C382,338.2,381.4,337.8,381.2,337.2z
		 M394.8,337.4c-0.9-0.1-1.5-0.8-1.4-1.7l0,0c0.1-0.9,0.8-1.5,1.7-1.4l0,0c0.9,0.1,1.5,0.8,1.4,1.7l0,0c-0.1,0.8-0.7,1.4-1.6,1.4
		l0,0C394.9,337.4,394.8,337.4,394.8,337.4z M387.2,335.9c-0.1-0.8,0.5-1.6,1.3-1.8l0,0c0.8-0.1,1.6,0.5,1.8,1.3l0,0
		c0.1,0.9-0.5,1.6-1.3,1.8l0,0c-0.1,0-0.1,0-0.2,0l0,0C388,337.3,387.3,336.7,387.2,335.9z M429.7,335.2c-0.4-0.7-0.2-1.7,0.5-2.1
		l0,0c0.7-0.4,1.7-0.2,2.1,0.5l0,0c0.4,0.7,0.2,1.7-0.5,2.1l0,0c-0.3,0.1-0.5,0.2-0.8,0.2l0,0C430.5,336,430,335.7,429.7,335.2z
		 M434.9,332c-0.5-0.7-0.4-1.6,0.2-2.2l0,0c0.7-0.5,1.6-0.4,2.2,0.2l0,0c0.5,0.7,0.4,1.6-0.2,2.2l0,0c-0.3,0.2-0.6,0.4-1,0.4l0,0
		C435.7,332.6,435.2,332.4,434.9,332z M439.7,328c-0.5-0.7-0.4-1.6,0.2-2.2l0,0c0.7-0.5,1.6-0.4,2.2,0.2l0,0
		c0.5,0.7,0.4,1.6-0.2,2.2l0,0c-0.3,0.2-0.6,0.3-1,0.3l0,0C440.5,328.6,440,328.4,439.7,328z M444.4,323.9c-0.6-0.6-0.5-1.6,0.1-2.2
		l0,0c0.6-0.6,1.6-0.6,2.2,0.1l0,0c0.6,0.6,0.5,1.6-0.1,2.2l0,0c-0.3,0.3-0.7,0.4-1.1,0.4l0,0C445.1,324.4,444.7,324.3,444.4,323.9z
		 M448.9,319.7c-0.6-0.6-0.5-1.6,0.1-2.2l0,0c0.6-0.6,1.6-0.5,2.2,0.1l0,0c0.6,0.6,0.5,1.6-0.1,2.2l0,0c-0.3,0.3-0.7,0.4-1,0.4l0,0
		C449.6,320.2,449.2,320,448.9,319.7z M453.5,315.5c-0.6-0.6-0.5-1.6,0.1-2.2l0,0c0.6-0.6,1.6-0.5,2.2,0.1l0,0
		c0.6,0.6,0.5,1.6-0.1,2.2l0,0c-0.3,0.3-0.7,0.4-1.1,0.4l0,0C454.2,316,453.8,315.8,453.5,315.5z M458.2,311.4
		c-0.5-0.7-0.4-1.6,0.2-2.2l0,0c0.7-0.5,1.6-0.4,2.2,0.2l0,0c0.5,0.7,0.4,1.6-0.2,2.2l0,0c-0.3,0.2-0.6,0.3-1,0.3l0,0
		C458.9,312,458.5,311.8,458.2,311.4z M462.9,307.4c-0.5-0.7-0.3-1.7,0.4-2.2l0,0c0.7-0.5,1.7-0.3,2.2,0.4l0,0
		c0.5,0.7,0.3,1.7-0.4,2.2l0,0c-0.3,0.2-0.6,0.3-0.9,0.3l0,0C463.7,308.1,463.2,307.9,462.9,307.4z M468.1,303.9
		c-0.5-0.7-0.3-1.7,0.4-2.2l0,0c0.7-0.5,1.7-0.3,2.2,0.4l0,0c0.5,0.7,0.3,1.7-0.4,2.2l0,0c-0.3,0.2-0.6,0.3-0.9,0.3l0,0
		C468.8,304.6,468.4,304.3,468.1,303.9z M473.3,300.6c-0.4-0.7-0.2-1.7,0.6-2.1l0,0c0.7-0.4,1.7-0.2,2.1,0.6l0,0
		c0.4,0.7,0.2,1.7-0.6,2.1l0,0c-0.2,0.1-0.5,0.2-0.8,0.2l0,0C474.1,301.3,473.6,301.1,473.3,300.6z M478.7,297.5
		c-0.4-0.8-0.1-1.7,0.7-2.1l0,0c0.8-0.4,1.7-0.1,2.1,0.7l0,0c0.4,0.8,0.1,1.7-0.7,2.1l0,0c-0.2,0.1-0.5,0.2-0.7,0.2l0,0
		C479.5,298.4,479,298,478.7,297.5z"/>
	<polygon class="st2" points="38.7,351.7 31.1,351.7 23.6,350.8 16.2,348.8 17,345.8 24.3,347.8 31.4,348.6 38.6,348.6 45.9,348.4 
		53.2,348 60.4,347.2 67.5,345.8 74.7,343.6 81.8,340 89.1,335.5 96.8,331.3 104.4,329 112.2,329.5 119.9,332.4 127.1,335.9 
		134.3,338.5 141.1,339.3 148.1,338 155.3,335 162.9,331.6 170.4,330 178.2,330.3 185.5,332 192.8,333.7 199.9,334.7 207,334.6 
		214.2,333.6 221.3,331.4 235.9,325.4 243.2,322.3 250.4,318.7 257.7,314.4 265.1,309.8 272.8,306.3 280.4,304.9 288.4,306.2 
		296,309.5 303.4,314.6 310.8,320.8 318.1,327.6 325.4,333.8 332.6,339.1 339.7,343.2 346.7,345.6 353.8,346.1 353.6,349.2 
		345.9,348.6 338.3,345.9 330.8,341.6 323.5,336.3 316.1,329.9 308.7,323.2 301.5,317 294.4,312.1 287.3,309.1 280.5,308 
		273.6,309.3 266.5,312.6 259.3,317.1 251.9,321.4 244.5,325.1 237.1,328.3 222.2,334.4 214.7,336.6 207.2,337.8 199.7,337.8 
		192.1,336.8 184.8,335 177.6,333.4 170.7,333.1 163.7,334.6 156.5,337.8 148.8,341 141.3,342.5 133.3,341.5 125.9,338.7 
		118.6,335.2 111.6,332.5 104.8,332.1 97.8,334.2 90.7,338.2 83.3,342.7 75.7,346.5 68.2,348.9 60.9,350.2 53.5,351.1 46,351.5 	"/>
</g>
<g id="Hexagone">
	<g>
		<g>
			<g>
				<path class="st1" d="M245.5,0L0,141.7v283.5l245.5,141.7L491,425.2V141.7L245.5,0z M474.2,415.5l-228.7,132l-228.7-132V151.4
					l228.7-132l228.7,132V415.5z"/>
			</g>
		</g>
	</g>
</g>
<g id="Text">
	<g>
		<text transform="matrix(1 0 0 1 120.6961 189.5352)"><tspan x="0" y="0" class="st1 st4 st5">rjd</tspan><tspan x="95" y="0" class="st3 st4 st5">3</tspan><tspan x="143.7" y="0" class="st1 st4 st5">x13</tspan></text>
	</g>
	<g>
		<text transform="matrix(0.866 -0.5 0.5 0.866 251.5388 531.2621)" class="st1 st6 st7">github.com/rjdverse/rjd3x13</text>
	</g>
</g>
</svg>
